<svg width="1439" height="846" viewBox="0 0 1439 846" fill="none" xmlns="http://www.w3.org/2000/svg">
<path d="M1242 17.451C1287.6 -16.0053 1394.33 7.08524 1439 17.451V751.451C1439 882.809 1052 861.363 870 783.62C784.258 746.995 618.5 696.226 491 730.54C363.5 764.854 347 770.216 194 800.777C71.6 825.226 -1.16667 746.268 -29 699.443V28.1741C-12.6667 24.5997 32.4 26.1367 82 60.8797C194.5 139.682 340 17.451 478 17.451C616 17.451 819.5 48.0119 870 60.8797C920.5 73.7475 1185 59.2712 1242 17.451Z" fill="#6083AE"/>
</svg>
