<svg width="1440" height="847" viewBox="0 0 1440 847" fill="none" xmlns="http://www.w3.org/2000/svg">
<path d="M1257 17.951C1302.6 -15.5053 1409.33 7.58524 1454 17.951V751.951C1454 883.309 1067 861.863 885 784.12C799.258 747.495 633.5 696.726 506 731.04C378.5 765.354 362 770.716 209 801.277C86.6 825.726 13.8333 746.768 -14 699.943V28.6741C2.33333 25.0997 47.4 26.6367 97 61.3797C209.5 140.182 355 17.951 493 17.951C631 17.951 834.5 48.5119 885 61.3797C935.5 74.2475 1200 59.7712 1257 17.951Z" fill="#323F50"/>
<path d="M1257 17.951C1302.6 -15.5053 1409.33 7.58524 1454 17.951V751.951C1454 883.309 1067 861.863 885 784.12C799.258 747.495 633.5 696.726 506 731.04C378.5 765.354 362 770.716 209 801.277C86.6 825.726 13.8333 746.768 -14 699.943V28.6741C2.33333 25.0997 47.4 26.6367 97 61.3797C209.5 140.182 355 17.951 493 17.951C631 17.951 834.5 48.5119 885 61.3797C935.5 74.2475 1200 59.7712 1257 17.951Z" fill="black" fill-opacity="0.2"/>
<path d="M1257 17.951C1302.6 -15.5053 1409.33 7.58524 1454 17.951V751.951C1454 883.309 1067 861.863 885 784.12C799.258 747.495 633.5 696.726 506 731.04C378.5 765.354 362 770.716 209 801.277C86.6 825.726 13.8333 746.768 -14 699.943V28.6741C2.33333 25.0997 47.4 26.6367 97 61.3797C209.5 140.182 355 17.951 493 17.951C631 17.951 834.5 48.5119 885 61.3797C935.5 74.2475 1200 59.7712 1257 17.951Z" fill="black" fill-opacity="0.2"/>
<path d="M1257 17.951C1302.6 -15.5053 1409.33 7.58524 1454 17.951V751.951C1454 883.309 1067 861.863 885 784.12C799.258 747.495 633.5 696.726 506 731.04C378.5 765.354 362 770.716 209 801.277C86.6 825.726 13.8333 746.768 -14 699.943V28.6741C2.33333 25.0997 47.4 26.6367 97 61.3797C209.5 140.182 355 17.951 493 17.951C631 17.951 834.5 48.5119 885 61.3797C935.5 74.2475 1200 59.7712 1257 17.951Z" stroke="black"/>
</svg>
