<svg aria-hidden="true" style="position: absolute; width: 0; height: 0; overflow: hidden;" version="1.1" xmlns="http://www.w3.org/2000/svg" xmlns:xlink="http://www.w3.org/1999/xlink">
  <defs>
    <symbol id="logo" viewBox="0 0 34 32">
      <path d="M8.458 13.364c0 0.671-0.541 1.215-1.208 1.215s-1.208-0.544-1.208-1.215c0-0.671 0.541-1.215 1.208-1.215s1.208 0.544 1.208 1.215z"></path>
      <path d="M25.373 13.607c0 0.671 0.541 1.215 1.208 1.215s1.208-0.544 1.208-1.215c0-0.671-0.541-1.215-1.208-1.215s-1.208 0.544-1.208 1.215z"></path>
      <path d="M7.974 18.71c0 0.671-0.541 1.215-1.208 1.215s-1.208-0.544-1.208-1.215c0-0.671 0.541-1.215 1.208-1.215s1.208 0.544 1.208 1.215z"></path>
      <path d="M25.856 18.953c0 0.671 0.541 1.215 1.208 1.215s1.208-0.544 1.208-1.215c0-0.671-0.541-1.215-1.208-1.215s-1.208 0.544-1.208 1.215z"></path>
      <path d="M12.807 17.981c0 0.671-0.541 1.215-1.208 1.215s-1.208-0.544-1.208-1.215c0-0.671 0.541-1.215 1.208-1.215s1.208 0.544 1.208 1.215z"></path>
      <path d="M21.023 18.224c0 0.671 0.541 1.215 1.208 1.215s1.208-0.544 1.208-1.215c0-0.671-0.541-1.215-1.208-1.215s-1.208 0.544-1.208 1.215z"></path>
      <path d="M19.945 0.010c1.925-0.101 3.221 0.526 4.132 2.341 1.739 3.465-1.166 7.038-3.443 9.421-0.478 0.5-2.309 1.963-2.881 2.238 0.013 1.328-0.175 6.134 0.223 7.045 0.708 1.621 2.099 2.515 3.694 3.118 1.452 0.549 3.476 0.619 4.979 0.263 0.558-0.132 1.093-0.358 1.613-0.596 1.257-0.576 2.86-1.917 3.275-3.288 0.19-0.628 0.161-1.277 0.396-1.908 0.6-0.121 0.712-0.149 1.305-0.012 0.101 0.129 0.256 0.392 0.349 0.539 0.005 0.276 0.027 0.635-0.002 0.903-0.441 4.101-5.138 6.721-8.865 6.45-1.051 2.71-3.578 4.896-6.465 5.333-2.546 0.386-4.319 0.007-6.481-1.318-1.145-1.055-2.592-2.193-2.99-3.861-2.642 0.007-4.946-0.826-6.879-2.648-1.153-1.086-1.858-2.444-1.903-4.048-0.008-0.278 0.003-0.675 0.213-0.886 0.194-0.196 0.507-0.41 0.795-0.406 0.979 0.015 0.873 1.621 1.127 2.232 0.258 0.62 0.75 1.253 1.22 1.726 1.464 1.472 3.512 2.103 5.545 2.096 1.834-0.006 4.15-0.566 5.484-1.927 0.516-0.527 1.087-1.215 1.316-1.932 0.258-0.807 0.125-5.654 0.116-6.861-0.114-0.050-0.227-0.103-0.337-0.161-0.566-0.301-0.974-0.57-1.461-0.986-0.431-0.187-0.955-0.831-1.306-1.175-1.352-1.255-3.073-3.504-3.664-5.205-0.379-1.303-0.373-2.977 0.286-4.195 1.896-3.501 6.162-2.77 7.254 0.933l0.101 0.039c0.092-0.077 0.212-0.463 0.263-0.6 0.474-1.282 1.642-2.392 2.991-2.665zM10.769 26.476c0.3 0.397 0.683 0.991 0.976 1.334 1.057 1.21 2.51 1.999 4.095 2.226 0.253 0.035 0.453 0.060 0.708 0.059 1.817 0.011 3.561-0.717 4.835-2.020 0.448-0.451 0.834-1.057 1.107-1.632-2.691-0.672-3.816-1.208-5.714-3.305-0.116 0.271-0.334 0.457-0.526 0.674-1.238 1.401-3.598 2.646-5.481 2.665z"></path>
    </symbol>
    <symbol id="heart" viewBox="0 0 32 32">
      <path stroke-linejoin="round" stroke-linecap="butt" stroke-miterlimit="4" stroke-width="2" d="M29.333 11.816c0.005 2.052-0.786 4.025-2.205 5.507-3.255 3.375-6.412 6.893-9.787 10.144-0.775 0.733-2.003 0.707-2.743-0.060l-9.727-10.083c-2.94-3.048-2.94-7.968 0-11.015 0.695-0.729 1.531-1.31 2.457-1.707s1.923-0.601 2.93-0.601c1.007 0 2.004 0.205 2.93 0.601s1.762 0.977 2.457 1.707l0.355 0.365 0.353-0.365c0.696-0.728 1.532-1.308 2.457-1.705s1.922-0.602 2.929-0.604c2.027 0 3.964 0.832 5.387 2.309 1.42 1.481 2.211 3.455 2.207 5.507z"></path>
    </symbol>
    <symbol id="burger-menu" viewBox="0 0 32 32">
      <path d="M5.333 24c-0.378 0-0.694-0.128-0.949-0.384s-0.383-0.572-0.384-0.949c-0.001-0.377 0.127-0.693 0.384-0.949s0.573-0.384 0.949-0.384h21.333c0.378 0 0.695 0.128 0.951 0.384s0.384 0.572 0.383 0.949c-0.001 0.377-0.129 0.694-0.384 0.951s-0.572 0.384-0.949 0.383h-21.333zM5.333 17.333c-0.378 0-0.694-0.128-0.949-0.384s-0.383-0.572-0.384-0.949c-0.001-0.377 0.127-0.693 0.384-0.949s0.573-0.384 0.949-0.384h21.333c0.378 0 0.695 0.128 0.951 0.384s0.384 0.572 0.383 0.949c-0.001 0.377-0.129 0.694-0.384 0.951s-0.572 0.384-0.949 0.383h-21.333zM5.333 10.667c-0.378 0-0.694-0.128-0.949-0.384s-0.383-0.572-0.384-0.949c-0.001-0.377 0.127-0.693 0.384-0.949s0.573-0.384 0.949-0.384h21.333c0.378 0 0.695 0.128 0.951 0.384s0.384 0.572 0.383 0.949c-0.001 0.377-0.129 0.694-0.384 0.951s-0.572 0.384-0.949 0.383h-21.333z"></path>
    </symbol>
    <symbol id="user" viewBox="0 0 32 32">
      <path stroke-linejoin="miter" stroke-linecap="butt" stroke-miterlimit="4" stroke-width="2" d="M16 13.333c2.945 0 5.333-2.388 5.333-5.333s-2.388-5.333-5.333-5.333c-2.946 0-5.333 2.388-5.333 5.333s2.388 5.333 5.333 5.333z"></path>
      <path stroke-linejoin="miter" stroke-linecap="butt" stroke-miterlimit="4" stroke-width="2" d="M26.667 23.333c0 3.313 0 6-10.667 6s-10.667-2.687-10.667-6c0-3.313 4.776-6 10.667-6s10.667 2.687 10.667 6z"></path>
    </symbol>
    <symbol id="moon" viewBox="0 0 32 32">
      <path d="M16.267 29.333c6.040 0 11.267-3.88 13.013-9.653 0.070-0.232 0.076-0.478 0.018-0.713s-0.18-0.449-0.351-0.62c-0.171-0.171-0.385-0.293-0.62-0.351s-0.481-0.053-0.713 0.018c-1.040 0.307-2.107 0.467-3.173 0.467-6.027 0-10.933-4.907-10.933-10.933 0-1.067 0.16-2.133 0.467-3.173 0.147-0.467 0.013-0.987-0.333-1.333s-0.853-0.48-1.333-0.333c-2.795 0.844-5.243 2.568-6.98 4.915s-2.67 5.192-2.66 8.112c0 7.493 6.093 13.6 13.6 13.6zM10.907 6.2c-0.040 0.453-0.067 0.907-0.067 1.36 0 7.493 6.093 13.6 13.6 13.6 0.453 0 0.907-0.027 1.36-0.067-1.893 3.413-5.493 5.573-9.533 5.573-6.027 0-10.933-4.907-10.933-10.933-0.008-1.942 0.505-3.851 1.485-5.527s2.392-3.060 4.088-4.006z"></path>
    </symbol>
    <symbol id="pow" viewBox="0 0 32 32">
      <path d="M20.143 5.143c-0.743 0-1.571 0.76-1.571 2s0.829 2 1.571 2c0.743 0 1.571-0.76 1.571-2s-0.829-2-1.571-2zM16.857 7.143c0-1.915 1.346-3.714 3.286-3.714s3.286 1.799 3.286 3.714-1.345 3.714-3.286 3.714c-1.941 0-3.286-1.799-3.286-3.714zM4.714 9.143c-0.743 0-1.571 0.76-1.571 2s0.829 2 1.571 2c0.743 0 1.571-0.76 1.571-2s-0.829-2-1.571-2zM1.429 11.143c0-1.915 1.346-3.714 3.286-3.714s3.286 1.799 3.286 3.714c0 1.915-1.346 3.714-3.286 3.714s-3.286-1.799-3.286-3.714zM16 14.286c-1.015 0-2.020 0.208-2.951 0.611s-1.771 0.993-2.465 1.734-1.23 1.615-1.574 2.57c-0.343 0.955-0.487 1.971-0.423 2.984 0.070 1.126 0.69 1.982 1.673 2.587 1.003 0.617 2.349 0.942 3.691 0.942h4.097c1.344 0 2.689-0.326 3.691-0.943 0.984-0.606 1.605-1.461 1.674-2.586 0.064-1.013-0.080-2.029-0.423-2.984s-0.879-1.83-1.574-2.57c-0.695-0.74-1.534-1.33-2.465-1.734s-1.936-0.611-2.951-0.611zM6.857 21.714c0-1.225 0.246-2.437 0.724-3.565s1.177-2.148 2.057-3.001c0.88-0.852 1.922-1.519 3.064-1.961s2.362-0.649 3.587-0.611c1.224 0.039 2.428 0.323 3.541 0.836s2.11 1.245 2.934 2.151c0.824 0.906 1.458 1.969 1.863 3.125s0.574 2.381 0.497 3.604c-0.112 1.799-1.138 3.11-2.486 3.939-1.33 0.818-3.005 1.197-4.591 1.197h-4.096c-1.587 0-3.261-0.378-4.591-1.197-1.349-0.83-2.374-2.141-2.486-3.939-0.012-0.193-0.018-0.385-0.018-0.578zM25.714 11.143c0-1.24 0.829-2 1.571-2s1.571 0.76 1.571 2-0.829 2-1.571 2c-0.743 0-1.571-0.76-1.571-2zM27.286 7.429c-1.941 0-3.286 1.799-3.286 3.714s1.345 3.714 3.286 3.714c1.941 0 3.286-1.799 3.286-3.714s-1.345-3.714-3.286-3.714zM10.286 7.143c0-1.24 0.829-2 1.571-2s1.571 0.76 1.571 2c0 1.24-0.829 2-1.571 2s-1.571-0.76-1.571-2zM11.857 3.429c-1.939 0-3.286 1.799-3.286 3.714s1.346 3.714 3.286 3.714c1.939 0 3.286-1.799 3.286-3.714s-1.346-3.714-3.286-3.714z"></path>
    </symbol>
    <symbol id="logout" viewBox="0 0 32 32">
      <path stroke-linejoin="round" stroke-linecap="round" stroke-miterlimit="4" stroke-width="1.92" d="M19.2 8.32c-0.060-1.399-0.237-2.291-0.765-2.977-0.204-0.266-0.443-0.505-0.709-0.709-1.037-0.794-2.541-0.794-5.549-0.794h-0.641c-3.628 0-5.441 0-6.569 1.125-1.126 1.124-1.126 2.935-1.126 6.555v8.96c0 3.62 0 5.431 1.126 6.555s2.941 1.125 6.569 1.125h0.64c3.009 0 4.513 0 5.55-0.794 0.268-0.206 0.504-0.442 0.709-0.709 0.529-0.686 0.705-1.578 0.765-2.977M26.88 16h-15.36M23.68 20.48c0 0 4.48-3.3 4.48-4.48s-4.48-4.48-4.48-4.48"></path>
    </symbol>
    <symbol id="theme-switcher-mob-menu" viewBox="0 0 54 32">
      <path fill="#a2a2a2" style="fill: var(--color1, #a2a2a2)" d="M16 0h22.4c8.837 0 16 7.163 16 16s-7.163 16-16 16h-22.4c-8.837 0-16-7.163-16-16s7.163-16 16-16z"></path>
      <path fill="#fafafa" style="fill: var(--color2, #fafafa)" d="M16 3.2c7.069 0 12.8 5.731 12.8 12.8s-5.731 12.8-12.8 12.8c-7.069 0-12.8-5.731-12.8-12.8s5.731-12.8 12.8-12.8z"></path>
    </symbol>
    <symbol id="user-menu" viewBox="0 0 32 32">
      <path stroke-linejoin="miter" stroke-linecap="butt" stroke-miterlimit="4" stroke-width="2.6667" d="M16 13.333c2.945 0 5.333-2.388 5.333-5.333s-2.388-5.333-5.333-5.333c-2.946 0-5.333 2.388-5.333 5.333s2.388 5.333 5.333 5.333z"></path>
      <path stroke-linejoin="miter" stroke-linecap="butt" stroke-miterlimit="4" stroke-width="2.6667" d="M26.667 23.333c0 3.313 0 6-10.667 6s-10.667-2.687-10.667-6c0-3.313 4.776-6 10.667-6s10.667 2.687 10.667 6z"></path>
    </symbol>
    <symbol id="theme-switcher-header" viewBox="0 0 66 32">
      <path fill="#c7e0f6" style="fill: var(--color1, #c7e0f6)" d="M14.933 0h36.267c8.247 0 14.933 6.686 14.933 14.933s-6.686 14.933-14.933 14.933h-36.267c-8.247 0-14.933-6.686-14.933-14.933s6.686-14.933 14.933-14.933z"></path>
      <path fill="#323f50" style="fill: var(--color2, #323f50)" d="M15.677 12.012c-0.906 0.617-1.499 1.655-1.499 2.831 0 1.89 1.532 3.422 3.422 3.422 1.176 0 2.215-0.593 2.831-1.499-2.498-0.273-4.482-2.257-4.755-4.755zM21.022 15.821c0.423 0 0.788 0.373 0.62 0.762-0.674 1.565-2.231 2.66-4.043 2.66-2.43 0-4.4-1.97-4.4-4.4 0-1.812 1.095-3.368 2.66-4.043 0.389-0.168 0.762 0.197 0.762 0.62 0 2.43 1.97 4.4 4.4 4.4z"></path>
      <path fill="#fff" style="fill: var(--color3, #fff)" d="M45.867 4.267h5.333c5.891 0 10.667 4.776 10.667 10.667s-4.776 10.667-10.667 10.667h-5.333c-5.891 0-10.667-4.776-10.667-10.667s4.776-10.667 10.667-10.667z"></path>
      <path fill="#323f50" style="fill: var(--color2, #323f50)" d="M48.533 17.867c1.62 0 2.933-1.313 2.933-2.933s-1.313-2.933-2.933-2.933c-1.62 0-2.933 1.313-2.933 2.933s1.313 2.933 2.933 2.933z"></path>
      <path fill="#323f50" style="fill: var(--color2, #323f50)" d="M48.531 9.8c0.27 0 0.489 0.219 0.489 0.489v0.489c0 0.27-0.219 0.489-0.489 0.489s-0.489-0.219-0.489-0.489v-0.489c0-0.27 0.219-0.489 0.489-0.489z"></path>
      <path fill="#323f50" style="fill: var(--color2, #323f50)" d="M48.531 18.6c0.27 0 0.489 0.219 0.489 0.489v0.487c0 0.27-0.219 0.489-0.489 0.489s-0.489-0.219-0.489-0.489v-0.487c0-0.27 0.219-0.489 0.489-0.489z"></path>
      <path fill="#323f50" style="fill: var(--color2, #323f50)" d="M43.398 14.933c0-0.27 0.219-0.489 0.489-0.489h0.489c0.27 0 0.489 0.219 0.489 0.489s-0.219 0.489-0.489 0.489h-0.489c-0.27 0-0.489-0.219-0.489-0.489z"></path>
      <path fill="#323f50" style="fill: var(--color2, #323f50)" d="M52.198 14.933c0-0.27 0.219-0.489 0.489-0.489h0.487c0.27 0 0.489 0.219 0.489 0.489s-0.219 0.489-0.489 0.489h-0.487c-0.27 0-0.489-0.219-0.489-0.489z"></path>
      <path fill="#323f50" style="fill: var(--color2, #323f50)" d="M44.902 18.562c-0.191-0.191-0.191-0.5 0-0.691l0.346-0.346c0.191-0.191 0.5-0.191 0.691 0s0.191 0.5 0 0.691l-0.346 0.346c-0.191 0.191-0.5 0.191-0.691 0z"></path>
      <path fill="#323f50" style="fill: var(--color2, #323f50)" d="M51.124 12.339c-0.191-0.191-0.191-0.5 0-0.691l0.345-0.345c0.191-0.191 0.5-0.191 0.691 0s0.191 0.5 0 0.691l-0.345 0.345c-0.191 0.191-0.5 0.191-0.691 0z"></path>
      <path fill="#323f50" style="fill: var(--color2, #323f50)" d="M44.902 11.303c0.191-0.191 0.5-0.191 0.691 0l0.346 0.346c0.191 0.191 0.191 0.5 0 0.691s-0.5 0.191-0.691 0l-0.346-0.346c-0.191-0.191-0.191-0.5 0-0.691z"></path>
      <path fill="#323f50" style="fill: var(--color2, #323f50)" d="M51.124 17.526c0.191-0.191 0.5-0.191 0.691 0l0.345 0.345c0.191 0.191 0.191 0.5 0 0.691s-0.5 0.191-0.691 0l-0.345-0.345c-0.191-0.191-0.191-0.5 0-0.691z"></path>
    </symbol>
    <symbol id="trash" viewBox="0 0 32 32">
      <path d="M11.25 5.75h-0.25c0.137 0 0.25-0.112 0.25-0.25v0.25zM11.25 5.75h9.5v-0.25c0 0.138 0.113 0.25 0.25 0.25h-0.25v2.25h2.25v-2.5c0-1.103-0.897-2-2-2h-10c-1.103 0-2 0.897-2 2v2.5h2.25v-2.25zM27 8h-22c-0.553 0-1 0.447-1 1v1c0 0.137 0.112 0.25 0.25 0.25h1.888l0.772 16.344c0.050 1.066 0.931 1.906 1.997 1.906h14.187c1.069 0 1.947-0.837 1.997-1.906l0.772-16.344h1.887c0.137 0 0.25-0.113 0.25-0.25v-1c0-0.553-0.447-1-1-1zM22.853 26.25h-13.706l-0.756-16h15.219l-0.756 16z"></path>
    </symbol>
    <symbol id="gender" viewBox="0 0 32 32">
      <path stroke-linejoin="round" stroke-linecap="round" stroke-miterlimit="4" stroke-width="2.6667" d="M25.333 6.667l-7.2 7.2M25.333 13.333v-6.667h-6.667M6.667 18.667c0 1.768 0.702 3.464 1.953 4.714s2.946 1.953 4.714 1.953 3.464-0.702 4.714-1.953c1.25-1.25 1.953-2.946 1.953-4.714s-0.702-3.464-1.953-4.714c-1.25-1.25-2.946-1.953-4.714-1.953s-3.464 0.702-4.714 1.953c-1.25 1.25-1.953 2.946-1.953 4.714z"></path>
    </symbol>
    <symbol id="calendar" viewBox="0 0 32 32">
      <path stroke-linejoin="round" stroke-linecap="round" stroke-miterlimit="4" stroke-width="2.6667" d="M22 6.667v-2.667M10 6.667v-2.667M4.333 10.667h23.333M4 13.392c0-2.82 0-4.231 0.581-5.308 0.526-0.961 1.341-1.731 2.331-2.201 1.141-0.549 2.635-0.549 5.621-0.549h6.933c2.987 0 4.48 0 5.621 0.549 1.004 0.483 1.819 1.253 2.331 2.2 0.581 1.080 0.581 2.491 0.581 5.311v6.549c0 2.82 0 4.231-0.581 5.308-0.526 0.961-1.341 1.731-2.331 2.201-1.141 0.548-2.635 0.548-5.621 0.548h-6.933c-2.987 0-4.48 0-5.621-0.549-0.989-0.47-1.805-1.24-2.331-2.2-0.581-1.080-0.581-2.491-0.581-5.311v-6.548z"></path>
    </symbol>
  </defs>
</svg>