<svg aria-hidden="true" style="position: absolute; width: 0; height: 0; overflow: hidden;" version="1.1" xmlns="http://www.w3.org/2000/svg" xmlns:xlink="http://www.w3.org/1999/xlink">
  <defs>
    <symbol id="logo" viewBox="0 0 34 32">
      <path d="M8.458 13.364c0 0.671-0.541 1.215-1.208 1.215s-1.208-0.544-1.208-1.215c0-0.671 0.541-1.215 1.208-1.215s1.208 0.544 1.208 1.215z"></path>
      <path d="M25.373 13.607c0 0.671 0.541 1.215 1.208 1.215s1.208-0.544 1.208-1.215c0-0.671-0.541-1.215-1.208-1.215s-1.208 0.544-1.208 1.215z"></path>
      <path d="M7.974 18.71c0 0.671-0.541 1.215-1.208 1.215s-1.208-0.544-1.208-1.215c0-0.671 0.541-1.215 1.208-1.215s1.208 0.544 1.208 1.215z"></path>
      <path d="M25.856 18.953c0 0.671 0.541 1.215 1.208 1.215s1.208-0.544 1.208-1.215c0-0.671-0.541-1.215-1.208-1.215s-1.208 0.544-1.208 1.215z"></path>
      <path d="M12.807 17.981c0 0.671-0.541 1.215-1.208 1.215s-1.208-0.544-1.208-1.215c0-0.671 0.541-1.215 1.208-1.215s1.208 0.544 1.208 1.215z"></path>
      <path d="M21.023 18.224c0 0.671 0.541 1.215 1.208 1.215s1.208-0.544 1.208-1.215c0-0.671-0.541-1.215-1.208-1.215s-1.208 0.544-1.208 1.215z"></path>
      <path d="M19.945 0.010c1.925-0.101 3.221 0.526 4.132 2.341 1.739 3.465-1.166 7.038-3.443 9.421-0.478 0.5-2.309 1.963-2.881 2.238 0.013 1.328-0.175 6.134 0.223 7.045 0.708 1.621 2.099 2.515 3.694 3.118 1.452 0.549 3.476 0.619 4.979 0.263 0.558-0.132 1.093-0.358 1.613-0.596 1.257-0.576 2.86-1.917 3.275-3.288 0.19-0.628 0.161-1.277 0.396-1.908 0.6-0.121 0.712-0.149 1.305-0.012 0.101 0.129 0.256 0.392 0.349 0.539 0.005 0.276 0.027 0.635-0.002 0.903-0.441 4.101-5.138 6.721-8.865 6.45-1.051 2.71-3.578 4.896-6.465 5.333-2.546 0.386-4.319 0.007-6.481-1.318-1.145-1.055-2.592-2.193-2.99-3.861-2.642 0.007-4.946-0.826-6.879-2.648-1.153-1.086-1.858-2.444-1.903-4.048-0.008-0.278 0.003-0.675 0.213-0.886 0.194-0.196 0.507-0.41 0.795-0.406 0.979 0.015 0.873 1.621 1.127 2.232 0.258 0.62 0.75 1.253 1.22 1.726 1.464 1.472 3.512 2.103 5.545 2.096 1.834-0.006 4.15-0.566 5.484-1.927 0.516-0.527 1.087-1.215 1.316-1.932 0.258-0.807 0.125-5.654 0.116-6.861-0.114-0.050-0.227-0.103-0.337-0.161-0.566-0.301-0.974-0.57-1.461-0.986-0.431-0.187-0.955-0.831-1.306-1.175-1.352-1.255-3.073-3.504-3.664-5.205-0.379-1.303-0.373-2.977 0.286-4.195 1.896-3.501 6.162-2.77 7.254 0.933l0.101 0.039c0.092-0.077 0.212-0.463 0.263-0.6 0.474-1.282 1.642-2.392 2.991-2.665zM10.769 26.476c0.3 0.397 0.683 0.991 0.976 1.334 1.057 1.21 2.51 1.999 4.095 2.226 0.253 0.035 0.453 0.060 0.708 0.059 1.817 0.011 3.561-0.717 4.835-2.020 0.448-0.451 0.834-1.057 1.107-1.632-2.691-0.672-3.816-1.208-5.714-3.305-0.116 0.271-0.334 0.457-0.526 0.674-1.238 1.401-3.598 2.646-5.481 2.665z"></path>
    </symbol>
    <symbol id="heart" viewBox="0 0 32 32">
      <path stroke-linejoin="round" stroke-linecap="butt" stroke-miterlimit="4" stroke-width="2" d="M29.333 11.816c0.005 2.052-0.786 4.025-2.205 5.507-3.255 3.375-6.412 6.893-9.787 10.144-0.775 0.733-2.003 0.707-2.743-0.060l-9.727-10.083c-2.94-3.048-2.94-7.968 0-11.015 0.695-0.729 1.531-1.31 2.457-1.707s1.923-0.601 2.93-0.601c1.007 0 2.004 0.205 2.93 0.601s1.762 0.977 2.457 1.707l0.355 0.365 0.353-0.365c0.696-0.728 1.532-1.308 2.457-1.705s1.922-0.602 2.929-0.604c2.027 0 3.964 0.832 5.387 2.309 1.42 1.481 2.211 3.455 2.207 5.507z"></path>
    </symbol>
    <symbol id="burger-menu" viewBox="0 0 32 32">
      <path d="M5.333 24c-0.378 0-0.694-0.128-0.949-0.384s-0.383-0.572-0.384-0.949c-0.001-0.377 0.127-0.693 0.384-0.949s0.573-0.384 0.949-0.384h21.333c0.378 0 0.695 0.128 0.951 0.384s0.384 0.572 0.383 0.949c-0.001 0.377-0.129 0.694-0.384 0.951s-0.572 0.384-0.949 0.383h-21.333zM5.333 17.333c-0.378 0-0.694-0.128-0.949-0.384s-0.383-0.572-0.384-0.949c-0.001-0.377 0.127-0.693 0.384-0.949s0.573-0.384 0.949-0.384h21.333c0.378 0 0.695 0.128 0.951 0.384s0.384 0.572 0.383 0.949c-0.001 0.377-0.129 0.694-0.384 0.951s-0.572 0.384-0.949 0.383h-21.333zM5.333 10.667c-0.378 0-0.694-0.128-0.949-0.384s-0.383-0.572-0.384-0.949c-0.001-0.377 0.127-0.693 0.384-0.949s0.573-0.384 0.949-0.384h21.333c0.378 0 0.695 0.128 0.951 0.384s0.384 0.572 0.383 0.949c-0.001 0.377-0.129 0.694-0.384 0.951s-0.572 0.384-0.949 0.383h-21.333z"></path>
    </symbol>
    <symbol id="user" viewBox="0 0 32 32">
      <path stroke-linejoin="miter" stroke-linecap="butt" stroke-miterlimit="4" stroke-width="2" d="M16 13.333c2.945 0 5.333-2.388 5.333-5.333s-2.388-5.333-5.333-5.333c-2.946 0-5.333 2.388-5.333 5.333s2.388 5.333 5.333 5.333z"></path>
      <path stroke-linejoin="miter" stroke-linecap="butt" stroke-miterlimit="4" stroke-width="2" d="M26.667 23.333c0 3.313 0 6-10.667 6s-10.667-2.687-10.667-6c0-3.313 4.776-6 10.667-6s10.667 2.687 10.667 6z"></path>
    </symbol>
    <symbol id="moon" viewBox="0 0 32 32">
      <path d="M16.267 29.333c6.040 0 11.267-3.88 13.013-9.653 0.070-0.232 0.076-0.478 0.018-0.713s-0.18-0.449-0.351-0.62c-0.171-0.171-0.385-0.293-0.62-0.351s-0.481-0.053-0.713 0.018c-1.040 0.307-2.107 0.467-3.173 0.467-6.027 0-10.933-4.907-10.933-10.933 0-1.067 0.16-2.133 0.467-3.173 0.147-0.467 0.013-0.987-0.333-1.333s-0.853-0.48-1.333-0.333c-2.795 0.844-5.243 2.568-6.98 4.915s-2.67 5.192-2.66 8.112c0 7.493 6.093 13.6 13.6 13.6zM10.907 6.2c-0.040 0.453-0.067 0.907-0.067 1.36 0 7.493 6.093 13.6 13.6 13.6 0.453 0 0.907-0.027 1.36-0.067-1.893 3.413-5.493 5.573-9.533 5.573-6.027 0-10.933-4.907-10.933-10.933-0.008-1.942 0.505-3.851 1.485-5.527s2.392-3.060 4.088-4.006z"></path>
    </symbol>
    <symbol id="pow" viewBox="0 0 32 32">
      <path d="M20.143 5.143c-0.743 0-1.571 0.76-1.571 2s0.829 2 1.571 2c0.743 0 1.571-0.76 1.571-2s-0.829-2-1.571-2zM16.857 7.143c0-1.915 1.346-3.714 3.286-3.714s3.286 1.799 3.286 3.714-1.345 3.714-3.286 3.714c-1.941 0-3.286-1.799-3.286-3.714zM4.714 9.143c-0.743 0-1.571 0.76-1.571 2s0.829 2 1.571 2c0.743 0 1.571-0.76 1.571-2s-0.829-2-1.571-2zM1.429 11.143c0-1.915 1.346-3.714 3.286-3.714s3.286 1.799 3.286 3.714c0 1.915-1.346 3.714-3.286 3.714s-3.286-1.799-3.286-3.714zM16 14.286c-1.015 0-2.020 0.208-2.951 0.611s-1.771 0.993-2.465 1.734-1.23 1.615-1.574 2.57c-0.343 0.955-0.487 1.971-0.423 2.984 0.070 1.126 0.69 1.982 1.673 2.587 1.003 0.617 2.349 0.942 3.691 0.942h4.097c1.344 0 2.689-0.326 3.691-0.943 0.984-0.606 1.605-1.461 1.674-2.586 0.064-1.013-0.080-2.029-0.423-2.984s-0.879-1.83-1.574-2.57c-0.695-0.74-1.534-1.33-2.465-1.734s-1.936-0.611-2.951-0.611zM6.857 21.714c0-1.225 0.246-2.437 0.724-3.565s1.177-2.148 2.057-3.001c0.88-0.852 1.922-1.519 3.064-1.961s2.362-0.649 3.587-0.611c1.224 0.039 2.428 0.323 3.541 0.836s2.11 1.245 2.934 2.151c0.824 0.906 1.458 1.969 1.863 3.125s0.574 2.381 0.497 3.604c-0.112 1.799-1.138 3.11-2.486 3.939-1.33 0.818-3.005 1.197-4.591 1.197h-4.096c-1.587 0-3.261-0.378-4.591-1.197-1.349-0.83-2.374-2.141-2.486-3.939-0.012-0.193-0.018-0.385-0.018-0.578zM25.714 11.143c0-1.24 0.829-2 1.571-2s1.571 0.76 1.571 2-0.829 2-1.571 2c-0.743 0-1.571-0.76-1.571-2zM27.286 7.429c-1.941 0-3.286 1.799-3.286 3.714s1.345 3.714 3.286 3.714c1.941 0 3.286-1.799 3.286-3.714s-1.345-3.714-3.286-3.714zM10.286 7.143c0-1.24 0.829-2 1.571-2s1.571 0.76 1.571 2c0 1.24-0.829 2-1.571 2s-1.571-0.76-1.571-2zM11.857 3.429c-1.939 0-3.286 1.799-3.286 3.714s1.346 3.714 3.286 3.714c1.939 0 3.286-1.799 3.286-3.714s-1.346-3.714-3.286-3.714z"></path>
    </symbol>
    <symbol id="logout" viewBox="0 0 32 32">
      <path stroke-linejoin="round" stroke-linecap="round" stroke-miterlimit="4" stroke-width="1.92" d="M19.2 8.32c-0.060-1.399-0.237-2.291-0.765-2.977-0.204-0.266-0.443-0.505-0.709-0.709-1.037-0.794-2.541-0.794-5.549-0.794h-0.641c-3.628 0-5.441 0-6.569 1.125-1.126 1.124-1.126 2.935-1.126 6.555v8.96c0 3.62 0 5.431 1.126 6.555s2.941 1.125 6.569 1.125h0.64c3.009 0 4.513 0 5.55-0.794 0.268-0.206 0.504-0.442 0.709-0.709 0.529-0.686 0.705-1.578 0.765-2.977M26.88 16h-15.36M23.68 20.48c0 0 4.48-3.3 4.48-4.48s-4.48-4.48-4.48-4.48"></path>
    </symbol>
    <symbol id="theme-switcher-mob-menu" viewBox="0 0 54 32">
      <path fill="#a2a2a2" style="fill: var(--color1, #a2a2a2)" d="M16 0h22.4c8.837 0 16 7.163 16 16s-7.163 16-16 16h-22.4c-8.837 0-16-7.163-16-16s7.163-16 16-16z"></path>
      <path fill="#fafafa" style="fill: var(--color2, #fafafa)" d="M16 3.2c7.069 0 12.8 5.731 12.8 12.8s-5.731 12.8-12.8 12.8c-7.069 0-12.8-5.731-12.8-12.8s5.731-12.8 12.8-12.8z"></path>
    </symbol>
    <symbol id="user-menu" viewBox="0 0 32 32">
      <path stroke-linejoin="miter" stroke-linecap="butt" stroke-miterlimit="4" stroke-width="2.6667" d="M16 13.333c2.945 0 5.333-2.388 5.333-5.333s-2.388-5.333-5.333-5.333c-2.946 0-5.333 2.388-5.333 5.333s2.388 5.333 5.333 5.333z"></path>
      <path stroke-linejoin="miter" stroke-linecap="butt" stroke-miterlimit="4" stroke-width="2.6667" d="M26.667 23.333c0 3.313 0 6-10.667 6s-10.667-2.687-10.667-6c0-3.313 4.776-6 10.667-6s10.667 2.687 10.667 6z"></path>
    </symbol>
    <symbol id="theme-switcher-header" viewBox="0 0 66 32">
      <path fill="#c7e0f6" style="fill: var(--color1, #c7e0f6)" d="M14.933 0h36.267c8.247 0 14.933 6.686 14.933 14.933s-6.686 14.933-14.933 14.933h-36.267c-8.247 0-14.933-6.686-14.933-14.933s6.686-14.933 14.933-14.933z"></path>
      <path fill="#323f50" style="fill: var(--color2, #323f50)" d="M15.677 12.012c-0.906 0.617-1.499 1.655-1.499 2.831 0 1.89 1.532 3.422 3.422 3.422 1.176 0 2.215-0.593 2.831-1.499-2.498-0.273-4.482-2.257-4.755-4.755zM21.022 15.821c0.423 0 0.788 0.373 0.62 0.762-0.674 1.565-2.231 2.66-4.043 2.66-2.43 0-4.4-1.97-4.4-4.4 0-1.812 1.095-3.368 2.66-4.043 0.389-0.168 0.762 0.197 0.762 0.62 0 2.43 1.97 4.4 4.4 4.4z"></path>
      <path fill="#fff" style="fill: var(--color3, #fff)" d="M45.867 4.267h5.333c5.891 0 10.667 4.776 10.667 10.667s-4.776 10.667-10.667 10.667h-5.333c-5.891 0-10.667-4.776-10.667-10.667s4.776-10.667 10.667-10.667z"></path>
      <path fill="#323f50" style="fill: var(--color2, #323f50)" d="M48.533 17.867c1.62 0 2.933-1.313 2.933-2.933s-1.313-2.933-2.933-2.933c-1.62 0-2.933 1.313-2.933 2.933s1.313 2.933 2.933 2.933z"></path>
      <path fill="#323f50" style="fill: var(--color2, #323f50)" d="M48.531 9.8c0.27 0 0.489 0.219 0.489 0.489v0.489c0 0.27-0.219 0.489-0.489 0.489s-0.489-0.219-0.489-0.489v-0.489c0-0.27 0.219-0.489 0.489-0.489z"></path>
      <path fill="#323f50" style="fill: var(--color2, #323f50)" d="M48.531 18.6c0.27 0 0.489 0.219 0.489 0.489v0.487c0 0.27-0.219 0.489-0.489 0.489s-0.489-0.219-0.489-0.489v-0.487c0-0.27 0.219-0.489 0.489-0.489z"></path>
      <path fill="#323f50" style="fill: var(--color2, #323f50)" d="M43.398 14.933c0-0.27 0.219-0.489 0.489-0.489h0.489c0.27 0 0.489 0.219 0.489 0.489s-0.219 0.489-0.489 0.489h-0.489c-0.27 0-0.489-0.219-0.489-0.489z"></path>
      <path fill="#323f50" style="fill: var(--color2, #323f50)" d="M52.198 14.933c0-0.27 0.219-0.489 0.489-0.489h0.487c0.27 0 0.489 0.219 0.489 0.489s-0.219 0.489-0.489 0.489h-0.487c-0.27 0-0.489-0.219-0.489-0.489z"></path>
      <path fill="#323f50" style="fill: var(--color2, #323f50)" d="M44.902 18.562c-0.191-0.191-0.191-0.5 0-0.691l0.346-0.346c0.191-0.191 0.5-0.191 0.691 0s0.191 0.5 0 0.691l-0.346 0.346c-0.191 0.191-0.5 0.191-0.691 0z"></path>
      <path fill="#323f50" style="fill: var(--color2, #323f50)" d="M51.124 12.339c-0.191-0.191-0.191-0.5 0-0.691l0.345-0.345c0.191-0.191 0.5-0.191 0.691 0s0.191 0.5 0 0.691l-0.345 0.345c-0.191 0.191-0.5 0.191-0.691 0z"></path>
      <path fill="#323f50" style="fill: var(--color2, #323f50)" d="M44.902 11.303c0.191-0.191 0.5-0.191 0.691 0l0.346 0.346c0.191 0.191 0.191 0.5 0 0.691s-0.5 0.191-0.691 0l-0.346-0.346c-0.191-0.191-0.191-0.5 0-0.691z"></path>
      <path fill="#323f50" style="fill: var(--color2, #323f50)" d="M51.124 17.526c0.191-0.191 0.5-0.191 0.691 0l0.345 0.345c0.191 0.191 0.191 0.5 0 0.691s-0.5 0.191-0.691 0l-0.345-0.345c-0.191-0.191-0.191-0.5 0-0.691z"></path>
    </symbol>
    <symbol id="trash" viewBox="0 0 32 32">
      <path d="M11.25 5.75h-0.25c0.137 0 0.25-0.112 0.25-0.25v0.25zM11.25 5.75h9.5v-0.25c0 0.138 0.113 0.25 0.25 0.25h-0.25v2.25h2.25v-2.5c0-1.103-0.897-2-2-2h-10c-1.103 0-2 0.897-2 2v2.5h2.25v-2.25zM27 8h-22c-0.553 0-1 0.447-1 1v1c0 0.137 0.112 0.25 0.25 0.25h1.888l0.772 16.344c0.050 1.066 0.931 1.906 1.997 1.906h14.187c1.069 0 1.947-0.837 1.997-1.906l0.772-16.344h1.887c0.137 0 0.25-0.113 0.25-0.25v-1c0-0.553-0.447-1-1-1zM22.853 26.25h-13.706l-0.756-16h15.219l-0.756 16z"></path>
    </symbol>
    <symbol id="gender" viewBox="0 0 32 32">
      <path stroke-linejoin="round" stroke-linecap="round" stroke-miterlimit="4" stroke-width="2.6667" d="M25.333 6.667l-7.2 7.2M25.333 13.333v-6.667h-6.667M6.667 18.667c0 1.768 0.702 3.464 1.953 4.714s2.946 1.953 4.714 1.953 3.464-0.702 4.714-1.953c1.25-1.25 1.953-2.946 1.953-4.714s-0.702-3.464-1.953-4.714c-1.25-1.25-2.946-1.953-4.714-1.953s-3.464 0.702-4.714 1.953c-1.25 1.25-1.953 2.946-1.953 4.714z"></path>
    </symbol>
    <symbol id="calendar" viewBox="0 0 32 32">
      <path stroke-linejoin="round" stroke-linecap="round" stroke-miterlimit="4" stroke-width="2.6667" d="M22 6.667v-2.667M10 6.667v-2.667M4.333 10.667h23.333M4 13.392c0-2.82 0-4.231 0.581-5.308 0.526-0.961 1.341-1.731 2.331-2.201 1.141-0.549 2.635-0.549 5.621-0.549h6.933c2.987 0 4.48 0 5.621 0.549 1.004 0.483 1.819 1.253 2.331 2.2 0.581 1.080 0.581 2.491 0.581 5.311v6.549c0 2.82 0 4.231-0.581 5.308-0.526 0.961-1.341 1.731-2.331 2.201-1.141 0.548-2.635 0.548-5.621 0.548h-6.933c-2.987 0-4.48 0-5.621-0.549-0.989-0.47-1.805-1.24-2.331-2.2-0.581-1.080-0.581-2.491-0.581-5.311v-6.548z"></path>
    </symbol>
    <symbol id="telegram" viewBox="0 0 32 32">
      <path d="M7.717 18.693l-4.239-1.425c-0.049-0.021-0.164-0.067-0.217-0.093-0.12-0.057-0.283-0.144-0.453-0.265-0.313-0.221-0.825-0.681-0.919-1.428-0.119-0.939 0.579-1.507 0.881-1.713 0.16-0.109 0.33-0.203 0.507-0.283 0.073-0.034 0.147-0.065 0.223-0.092l22.303-8.749c0.114-0.046 0.23-0.088 0.347-0.125 0.209-0.067 0.521-0.149 0.857-0.176 0.313-0.024 0.808-0.011 1.253 0.279 0.519 0.337 0.74 0.896 0.74 1.483-0.001 0.065-0.008 0.13-0.019 0.195l-3.973 20.033c-0.014 0.060-0.031 0.12-0.053 0.177l-0.001 0.001v0.003l-0.003 0.005-0.004 0.011-0.012 0.029c-0.172 0.378-0.429 0.71-0.752 0.971-0.281 0.225-0.659 0.424-1.133 0.491-0.477 0.064-0.984-0.016-1.507-0.243-0.075-0.034-0.144-0.075-0.208-0.124l-4.353-3.336-3.775 2.352c-0.126 0.084-0.262 0.151-0.405 0.2-0.244 0.081-0.633 0.148-1.060-0.012-0.086-0.031-0.17-0.070-0.248-0.117-0.149-0.093-0.276-0.216-0.387-0.355-0.213-0.272-0.408-0.669-0.593-1.253-0.148-0.475-0.824-2.125-1.495-3.728-0.373-0.891-0.748-1.78-1.125-2.669-0.060-0.010-0.118-0.024-0.176-0.041zM26.568 6.49h-0.003l-0.035 0.015-22.36 8.771c-0.041 0.016-0.081 0.034-0.12 0.053 0.037 0.021 0.076 0.040 0.115 0.057l4.189 1.411c0.074 0.027 0.145 0.061 0.213 0.101l13.849-8.107c0.054-0.032 0.109-0.062 0.165-0.091 0.096-0.049 0.249-0.121 0.423-0.175 0.12-0.037 0.476-0.143 0.86-0.019 0.204 0.064 0.386 0.184 0.524 0.346s0.229 0.361 0.26 0.572c0.050 0.185 0.051 0.38 0.004 0.565-0.093 0.367-0.349 0.652-0.583 0.871-0.2 0.187-2.795 2.688-5.353 5.157l-4.104 3.96 7.829 6.003c0.106 0.044 0.22 0.062 0.335 0.053 0.057-0.008 0.112-0.032 0.156-0.069 0.054-0.046 0.1-0.1 0.137-0.16l0.003-0.001 3.853-19.431c-0.121 0.030-0.24 0.068-0.356 0.115l-0.003 0.001zM15.287 23.016l-1.563-1.197-0.379 2.407 1.941-1.209zM12.291 19.442l6.335-6.113-8.693 5.089 0.047 0.109c0.548 1.295 1.091 2.593 1.627 3.893l0.377-2.4c0.034-0.223 0.143-0.426 0.308-0.579z"></path>
    </symbol>
    <symbol id="instagram" viewBox="0 0 32 32">
      <path stroke-linejoin="round" stroke-linecap="round" stroke-miterlimit="4" stroke-width="1.6" d="M21.333 4c3.68 0 6.667 2.987 6.667 6.667v10.667c0 3.68-2.987 6.667-6.667 6.667h-10.667c-3.68 0-6.667-2.987-6.667-6.667v-10.667c0-3.68 2.987-6.667 6.667-6.667h10.667z"></path>
      <path stroke-linejoin="round" stroke-linecap="round" stroke-miterlimit="4" stroke-width="1.6" d="M16 10.666c2.947 0 5.333 2.387 5.333 5.333s-2.387 5.333-5.333 5.333c-2.947 0-5.333-2.387-5.333-5.333s2.387-5.333 5.333-5.333z"></path>
      <path d="M22.445 10.889c0.982 0 1.778-0.796 1.778-1.778s-0.796-1.778-1.778-1.778c-0.982 0-1.778 0.796-1.778 1.778s0.796 1.778 1.778 1.778z"></path>
    </symbol>
    <symbol id="facebook" viewBox="0 0 32 32">
      <path stroke-linejoin="round" stroke-linecap="round" stroke-miterlimit="4" stroke-width="1.6" d="M8.667 13.333v5.333h4v9.333h5.333v-9.333h4l1.333-5.333h-5.333v-2.667c0-0.727 0.607-1.333 1.333-1.333h4v-5.333h-4c-3.631 0-6.667 3.036-6.667 6.667v2.667h-4z"></path>
    </symbol>
    <symbol id="phone" viewBox="0 0 32 32">
      <path d="M22.172 18.521l0.608-0.604-1.412-1.419-0.605 0.604 1.409 1.419zM24.819 17.664l2.548 1.385 0.953-1.757-2.547-1.384-0.955 1.756zM27.856 21.801l-1.893 1.884 1.409 1.417 1.893-1.883-1.409-1.419zM24.808 24.291c-1.933 0.181-6.933 0.020-12.349-5.364l-1.411 1.417c5.909 5.876 11.535 6.164 13.947 5.939l-0.187-1.992zM12.459 18.927c-5.161-5.133-6.017-9.449-6.124-11.323l-1.997 0.113c0.133 2.357 1.193 7.141 6.711 12.627l1.411-1.417zM14.292 10.687l0.383-0.381-1.408-1.417-0.383 0.38 1.408 1.419zM14.979 5.459l-1.68-2.245-1.601 1.2 1.68 2.244 1.601-1.199zM7.644 2.724l-2.093 2.080 1.411 1.419 2.092-2.080-1.409-1.419zM13.588 9.977c-0.707-0.709-0.707-0.709-0.707-0.707h-0.003l-0.004 0.005c-0.063 0.064-0.12 0.134-0.169 0.209-0.072 0.107-0.151 0.247-0.217 0.424-0.162 0.458-0.203 0.95-0.117 1.428 0.179 1.153 0.973 2.677 3.008 4.701l1.411-1.419c-1.905-1.893-2.359-3.045-2.443-3.589-0.040-0.259 0.001-0.387 0.013-0.416 0.008-0.018 0.008-0.020 0-0.008-0.012 0.018-0.025 0.036-0.040 0.052l-0.013 0.013-0.013 0.012-0.705-0.707zM15.379 16.039c2.036 2.024 3.568 2.813 4.723 2.989 0.591 0.091 1.067 0.019 1.428-0.116 0.202-0.074 0.392-0.18 0.56-0.315l0.067-0.060 0.009-0.008 0.004-0.004 0.001-0.003c0 0 0.001-0.001-0.704-0.711-0.707-0.709-0.703-0.711-0.703-0.711l0.005-0.005 0.008-0.007 0.013-0.013 0.051-0.040c0.013-0.008 0.009-0.007-0.009 0.003-0.033 0.012-0.164 0.053-0.427 0.013-0.552-0.085-1.712-0.539-3.616-2.432l-1.411 1.419zM13.299 3.212c-1.36-1.813-4.032-2.101-5.655-0.488l1.409 1.419c0.709-0.705 1.968-0.632 2.644 0.271l1.601-1.201zM6.336 7.605c-0.027-0.461 0.185-0.944 0.625-1.381l-1.412-1.419c-0.716 0.712-1.28 1.72-1.212 2.912l1.999-0.112zM25.963 23.685c-0.365 0.365-0.76 0.571-1.153 0.607l0.185 1.991c0.98-0.092 1.781-0.585 2.379-1.179l-1.411-1.419zM14.675 10.305c1.313-1.305 1.411-3.368 0.305-4.845l-1.601 1.199c0.537 0.719 0.457 1.661-0.113 2.231l1.409 1.416zM27.368 19.051c1.089 0.592 1.259 1.987 0.489 2.752l1.411 1.417c1.787-1.777 1.236-4.741-0.947-5.927l-0.953 1.757zM22.78 17.919c0.512-0.509 1.336-0.635 2.040-0.253l0.955-1.756c-1.445-0.787-3.237-0.569-4.405 0.591l1.411 1.419z"></path>
    </symbol>
    <symbol id="email" viewBox="0 0 32 32">
      <path stroke-linejoin="round" stroke-linecap="round" stroke-miterlimit="4" stroke-width="2" d="M5.333 6.667h21.333c0.733 0 1.333 0.6 1.333 1.333v16c0 0.733-0.6 1.333-1.333 1.333h-21.333c-0.733 0-1.333-0.6-1.333-1.333v-16c0-0.733 0.6-1.333 1.333-1.333z"></path>
      <path stroke-linejoin="round" stroke-linecap="round" stroke-miterlimit="4" stroke-width="2" d="M4 8.667l12 7.333 12-7.333"></path>
    </symbol>
    <symbol id="location" viewBox="0 0 32 32">
      <path stroke-linejoin="round" stroke-linecap="butt" stroke-miterlimit="4" stroke-width="2" d="M8.533 6.347c1.987-1.947 4.662-3.032 7.445-3.018s5.446 1.126 7.414 3.093 3.079 4.632 3.093 7.414c0.014 2.782-1.070 5.457-3.018 7.445l-5.581 5.581c-0.5 0.5-1.178 0.781-1.885 0.781s-1.385-0.281-1.885-0.781l-5.581-5.581c-1.98-1.98-3.093-4.666-3.093-7.467s1.112-5.486 3.093-7.467z"></path>
      <path stroke-linejoin="round" stroke-linecap="round" stroke-miterlimit="4" stroke-width="2" d="M16 17.813c2.209 0 4-1.791 4-4s-1.791-4-4-4-4 1.791-4 4c0 2.209 1.791 4 4 4z"></path>
    </symbol>
    <symbol id="dog" viewBox="0 0 62 32">
      <path d="M17.488 0.001c7.33-0.071 11.928 3.463 14.864 9.95 2.836-1.513 5.993-2.339 9.212-2.411 5.456-0.108 10.725 1.97 14.623 5.764 3.698 3.573 5.899 8.452 6.078 13.584 0.12 2.262-1.551 4.489-3.807 4.922-1.379 0.264-3.229 0.16-4.673 0.16h-37.439c-3.041 0.003-4.245 0.368-6.758-1.52-2.299-0.114-4.66 0.446-6.591-1.132-1.54-1.258-2.122-3.051-1.73-4.983 0.197-0.972 0.673-1.632 1.29-2.378-1.161-1.276-2.554-3.951-2.557-5.714-0.004-2.295 1.728-2.548 3.252-3.294 1.576-0.753 2.778-2.108 3.332-3.755 0.255-0.763 0.41-1.588 0.685-2.358 0.529-1.515 1.39-2.894 2.521-4.038 2.101-2.093 4.802-2.79 7.697-2.797zM32.858 11.176c1.27 3.027 2.459 7.338 1.139 10.469-0.583 1.418-1.724 2.537-3.158 3.098-2.012 0.798-4.221 0.469-6.152-0.327-1.634-0.674-2.378-1.503-3.611-2.461-0.982-0.763-3.711-0.339-4.76 0.152-1.704 0.659-3.2 1.645-4.794 2.514-0.51 0.278-1.548 0.501-1.735 1.040-0.323 0.928-0.318 1.896 0.098 2.802 0.402 0.894 1.157 1.586 2.087 1.911 1.257 0.437 4.061 0.284 5.491 0.283l16.466-0.003c1.452 0 3.239 0.052 4.659-0.018-1.923-1.474-2.954-2.944-3.328-5.414-0.055-0.366-0.082-1.101-0.041-1.465 0.379-4.044 3.569-7.226 7.783-7.159 0.663 0.011 0.829 0.85 0.313 1.16-0.474 0.241-1.216 0.152-1.737 0.272-4.078 0.942-6.24 5.393-4.333 9.134 0.777 1.531 2.146 2.683 3.794 3.193 0.484 0.153 0.986 0.247 1.494 0.281 0.808 0.056 2.023 0.016 2.862 0.014l9.646 0.002c1.3 0.001 2.847 0.165 4.017-0.46 0.841-0.459 1.465-1.229 1.737-2.142 0.489-1.669-0.407-5.238-1.004-6.85-0.376-1-0.83-1.969-1.36-2.897-2.547-4.376-6.746-7.561-11.666-8.848-1.897-0.492-3.858-0.689-5.816-0.583-2.97 0.254-5.449 0.861-8.091 2.3zM3.74 14.229c0.48 0.506 0.756 1.003 0.747 1.724-0.004 0.593-0.261 1.156-0.708 1.549-0.555 0.489-1.303 0.654-2.023 0.525 1.121 2.85 4.91 7.311 8.144 5.887 4.049-1.783 5.683-4.1 10.682-3.575-0.14-3.358 2.275-5.496 0.637-8.525-0.289-0.525-1.133-1.324-1.082-1.873 0.166-0.455 0.644-0.701 1.023-0.366 1.114 0.986 1.552 2.131 1.885 3.494 0.79 3.23-3.058 6.636 0.253 9.038 2.566 1.861 6.636 2.803 8.884 0.046 1.408-1.783 1.181-4.801 0.628-6.876-1.137-4.276-3.124-8.826-6.822-11.512-2.564-1.868-6.061-2.599-9.196-2.448-2.477 0.171-4.837 0.932-6.455 2.878-3.502 4.211-0.962 6.8-6.597 10.032zM8.016 29.105c0.207 0 0.455-0.006 0.658 0.004-0.482-1.323-0.549-2.223-0.273-3.622-1.409-0.173-2.791-0.77-3.92-1.632-0.256-0.195-0.871-0.798-1.1-0.862-0.697 0.97-1.060 1.886-0.845 3.111 0.161 0.951 0.704 1.795 1.504 2.341 1.311 0.896 2.499 0.604 3.976 0.661z"></path>
      <path d="M12.194 9.437c1.397 0.002 2.393 0.835 2.541 2.239 0.107 0.346-0.227 1.386-0.732 1.247-1.008-0.277-0.273-1.108-0.977-1.917-1.399-0.967-1.656 0.888-2.4 1.128-0.611 0.197-1.051-0.982-0.341-1.639 0.698-0.647 0.799-0.916 1.91-1.058z"></path>
      <path d="M5.865 19.775c0.24-0.103 0.518-0.069 0.724 0.091s0.309 0.418 0.268 0.674c-0.041 0.256-0.22 0.47-0.466 0.557-0.364 0.129-0.765-0.052-0.907-0.409s0.027-0.761 0.381-0.914z"></path>
      <path d="M8.247 18.315c0.255-0.047 0.515 0.047 0.68 0.244s0.21 0.47 0.116 0.71c-0.094 0.24-0.311 0.411-0.567 0.446-0.384 0.054-0.741-0.208-0.803-0.589s0.193-0.741 0.574-0.811z"></path>
      <path d="M8.633 20.791c0.368-0.14 0.78 0.043 0.92 0.409s-0.046 0.775-0.415 0.913c-0.367 0.136-0.775-0.047-0.914-0.411s0.044-0.771 0.41-0.91z"></path>
    </symbol>
    <symbol id="cat" viewBox="0 0 55 32">
      <path d="M15.875 4.825c0.723-0.752 4.594-6.055 5.781-4.562 0.999 1.257 1.159 5.022 1.3 6.748 6.028-3.106 13.032-5.261 19.713-3.118 4.36 1.399 8.623 4.427 10.625 8.627 3.077 6.455 2.822 13.745-4.154 17.276-1.35 0.673-2.779 1.171-4.255 1.482-4.116 0.902-8.766 0.898-12.94 0.327-2.312-0.316-5.219-1.002-5.256-3.834-2.938 1.844-11.78 2.846-14.521 0.654-3.219 1.802-8.438 0.497-7.419-3.93 0.095-0.413 0.598-1.165 0.819-1.585-0.676 0.517-2.033 1.736-2.587 2.064l-0.144-0.031c-0.273-0.886 2.011-2.253 2.728-2.599-0.64-0.461-1.681-1.721-1.941-1.855l-0.093-0.374c-0.911-1.629-1.294-3.164-1.211-5.012 0.026-0.569 0.134-1.541 0.014-2.035-0.827-3.409-5.871-10.803 2.097-7.396 0.963 0.412 2.019 0.746 2.962 1.182 3.021-1.932 5.034-2.083 8.482-2.028zM22.979 8.258c1.194 1.973 2.61 4.252 2.176 6.764 0.623-0.088 3.459-0.451 3.728 0.187-0.277 0.43-3.034 0.315-3.766 0.413-0.226 0.923-0.355 1.507-0.714 2.383 0.798 0.011 2.717 0.448 3.302 0.916 0.028 0.267 0.063 0.156-0.075 0.353-0.319 0.014-1.835-0.451-2.274-0.524-0.495-0.083-0.757-0.093-1.279-0.109-1.286 2.185-2.211 2.946-4.23 4.52 1.132-0.35 2.070-0.745 3.137-1.24 0.159-0.074 0.448-0.054 0.623-0.015l0.1 0.080c0.024 0.284-0.070 0.477-0.253 0.693-1.899 2.238-10.966 1.385-10.875 4.052 0.013 0.377 0.226 0.76 0.508 1.002 1.399 1.203 5.377 0.848 7.2 0.68 2.584-0.238 5.688-0.839 7.441-2.921 0.807-0.958 1.158-2.081 1.259-3.309 0.032-0.386 0.024-0.835 0.151-1.203 0.074-0.216 0.181-0.26 0.39-0.311 1.174 0.517 0.233 3.448-0.146 4.317 2.014-0.066 3.72 0.158 5.675 0.715-1.396-2.835-2.153-4.471-1.118-8 0.948-3.235 4.542-6.024 8.097-5.603 0.124 0.015 0.173 0.105 0.25 0.199-0.002 0.263-0.036 0.281-0.199 0.505-0.684 0.395-2.41 0.489-3.507 1.087-0.758 0.438-1.308 0.771-1.928 1.412-2.613 2.693-2.645 7.19-0.355 10.093 0.157 0.199 0.426 0.518 0.695 0.538 3.706 0.28 7.924 0.454 10.895-2.195 0.484-0.431 1.375-1.794 2.048-1.73 0.212 0.183 0.145 0.116 0.226 0.437-0.149 0.896-1.458 2.177-2.178 2.666-4.929 3.343-11.349 1.832-16.798 0.968-1.331-0.211-3.047 0.019-3.337 1.568-0.392 2.096 2.978 2.699 4.414 2.878 7.554 0.939 20.601 0.711 21.719-9.243 0.363-3.459-1.114-8.111-3.338-10.78-2.91-3.581-7.010-5.632-11.549-6.216-0.732-0.094-3.273-0.133-4.013-0.028-4.545 0.424-8.138 1.935-12.098 4.004zM7.468 8.117c-0.926-0.404-5.524-2.337-6.171-2.279-0.557 0.868 1.955 5.605 2.079 6.86 0.29 2.932-0.333 4.269 1.235 7.022 1.236-0.202 5.277-0.868 6.177 0.006l0.027 0.151c-0.117 0.099-0.185 0.112-0.335 0.115-1.964 0.029-3.429-0.107-5.389 0.289 0.551 0.703 0.795 0.952 1.478 1.562 1.121-0.648 2.313-0.946 3.586-1.134 0.431-0.064 0.671-0.139 0.939 0.266-0.093 0.162-0.027 0.123-0.174 0.163-1.229 0.337-2.629 0.475-3.74 1.147 6.221 3.153 11.588 1.788 15.732-3.744-1.124 0.168-1.977 0.329-3.049 0.505-0.492 0.153-0.532 0.345-1.094 0.19l-0.081-0.145c0.17-0.364 0.564-0.448 0.916-0.568 1.262-0.428 2.234-0.54 3.545-0.534 0.335-0.684 0.548-1.411 0.782-2.136-1.415 0.622-2.858 0.866-4.166 1.773-0.284 0.197-0.91 0.525-1.249 0.438-0.115-0.241-0.106-0.13-0.022-0.404 1.322-1.201 3.945-1.83 5.552-2.463 0.121-1.583-0.177-3.129-0.956-4.522-0.411-0.736-0.914-1.488-1.063-2.318-0.443-2.464-0.341-4.944-1.108-7.371-1.555 1.309-2.857 3.279-4.348 4.661-0.114 0.105-0.486 0.154-0.646 0.171-1.538 0.011-2.866-0.037-4.389 0.359-1.52 0.396-2.735 1.12-4.066 1.941zM6.776 23.269c-0.571 0.7-1.276 1.55-1.106 2.512 0.421 2.376 3.453 2.653 5.281 2.066 0.209-0.105 0.449-0.173 0.495-0.427 0.202-1.112 0.070-1.431 0.754-2.367-1.639-0.346-3.138-0.695-4.656-1.411-0.24-0.113-0.537-0.282-0.769-0.374z"></path>
      <path d="M15.246 17.947c0.277-0.031 0.581 0.047 0.783 0.241 0.275 0.711-0.586 1.42-0.585 2.14 0.178 0.4 0.769 0.588 1.164 0.754 0.536-0.214 0.963-0.641 1.401-0.764l0.147 0.111c0.198 0.737-0.945 1.122-1.504 1.29-0.402-0.107-0.636-0.203-1.017-0.376-0.504-0.228-0.504-0.108-0.767 0.274-0.078 0.093-0.16 0.183-0.244 0.27-0.743 0.764-1.694 0.748-2.437-0.011l0.015-0.104c0.648-0.249 2.040 0.441 2.366-0.948-0.101-0.931-1.521-1.141-1.331-2.116 0.389-0.486 1.411-0.674 2.009-0.761z"></path>
      <path d="M11.361 15.163c0.353 0.011 0.336 0.037 0.543 0.232 0.315 0.829-0.95 1.737-1.649 1.934-1.066 0.3-1.758 0.113-2.717-0.375-0.371-0.279-0.782-0.61-0.571-1.124 0.804-0.433 1.692 0.665 2.381 0.646 0.731-0.019 1.521-0.826 2.013-1.312z"></path>
      <path d="M19.824 12.565c1.673 0.346-0.33 3.753-3.707 2.685-0.412-0.2-0.758-0.479-0.505-0.957 0.685-0.421 1.262 0.36 2.283 0.124 0.926-0.214 1.396-1.105 1.93-1.853z"></path>
      <path d="M3.531 20.114l0.093 0.374c-0.163 0.228-3.174 1.679-3.454 1.161 0.319-0.687 2.634-1.337 3.361-1.534z"></path>
    </symbol>
    <symbol id="parrot" viewBox="0 0 36 32">
      <path d="M7.324 0.036c3.725-0.315 6.693 1.442 8.844 4.417 0.989 1.368 1.77 2.826 3.063 3.961 0.75 0.718 1.72 1.053 2.584 1.598 4.668 2.944 7.814 7.985 9.864 12.985 0.831 2.028 1.162 2.577-1.471 2.38 1.315 1.622 4.006 3.926 5.255 5.721 0.050 0.090 0.065 0.285-0.009 0.367-1.123 1.233-3.31 0.011-4.286-0.476-2.709 0.447-4.561-1.147-6.395-2.9-0.525-0.55-1.103-1.133-1.591-1.71-1.391 0.337-3.096 0.633-4.527 0.452 0.339 0.301 0.798 0.723 0.943 1.164 0.085 0.259-0.043 0.554-0.34 0.58-0.385-0.189-0.674-0.796-0.946-1.038-0.569-0.503-1.378-0.581-2.054-0.594-1.366-0.027-1.829 0.414-2.711 1.354-0.155 0.165-0.244 0.192-0.444 0.189-0.902-0.628 1.034-1.83 1.514-2.018 0.242-0.095 0.484-0.152 0.735-0.212-2.1-0.61-4.002-1.758-5.517-3.328-2.086-2.146-3.185-5.193-3.412-8.133-0.064-0.824-0.040-1.692-0.027-2.521-1.225 0.203-1.903 0.255-3.081-0.267 0.009 0.531 0.192 1.625 0.052 2.068-0.285 0.286-0.592 0.049-0.869-0.149-2.127-1.517-3.153-4.258-2.045-6.711 0.28-0.62 0.57-1.039 0.973-1.582-0.016-0.081-0.030-0.161-0.042-0.243-0.144-0.99 0.286-2.004 0.881-2.777 1.178-1.53 3.187-2.329 5.060-2.579zM20.993 18.157c0.216-0.141 0.181-0.165 0.405-0.17 0.414 0.175 1.074 1.215 1.375 1.608 1.792 2.34 5.612 5.2 8.679 5.035-0.21-0.554-0.456-1.277-0.771-1.769-2.794-1.001-4.964-2.5-6.597-5.009-0.086-0.133-0.064-0.292-0.026-0.434 0.136-0.159 0.064-0.115 0.271-0.164 0.398 0.078 0.808 0.732 1.062 1.064 1.42 1.863 2.882 2.693 4.987 3.61-0.305-0.734-0.823-1.657-1.219-2.375-2.061-3.733-5.102-7.784-9.102-9.553-0.971-0.43-1.748-0.51-2.789-0.466-1.334 0.116-2.505 0.728-3.334 1.769-2.425 3.046-0.23 7.645 2.449 9.756 1.321 1.041 2.809 1.793 4.397 2.314 0.294 0.095 0.73 0.277 1.017 0.302l0.032-0.067c-0.213-0.262-0.645-0.443-0.913-0.696-0.797-0.75-3.526-3.688-3.433-4.765 0.006-0.064 0.057-0.12 0.092-0.173 0.161-0.077 0.167-0.083 0.337-0.054 0.504 0.385 1.030 1.555 1.509 2.185 1.395 1.835 3.531 3.844 5.875 4.315 1.007 0.203 1.886 0.162 3.009 0.398-2.603-1.333-4.744-2.719-6.46-5.142-0.274-0.387-0.89-1.032-0.854-1.521zM3.647 6.022c0.307-1.13 0.851-2.103 1.906-2.705 1.064-0.614 2.335-0.767 3.515-0.421 1.155 0.327 1.981 1.012 2.56 2.060 0.56 1.030 0.683 2.241 0.34 3.361-0.389 1.269-1.413 2.341-2.582 2.952-0.778 0.406-1.4 0.538-2.203 0.795-0.008 1.097-0.044 2.244 0.082 3.336 0.93 8.034 8.378 12.249 16.059 10.13 0.473 0.286 1.474 1.492 1.963 1.98 1.601 1.565 2.92 2.571 5.166 2.954-0.616-0.567-1.255-1.141-1.85-1.727-1.133-1.117-2.216-2.379-3.325-3.504-0.744-0.157-1.488-0.24-2.234-0.421-3.785-0.918-7.286-2.341-9.466-5.733-1.922-2.99-2.327-7.213 1.012-9.429 1.020-0.677 2.743-1.055 3.955-0.821-1.404-1.322-2.211-2.793-3.329-4.311-1.639-2.225-4.318-3.861-7.166-3.776-0.099 0.002-0.197 0.009-0.295 0.021-1.863 0.237-3.676 0.805-4.894 2.346-0.297 0.376-1.12 1.978-0.559 2.42 0.197 0.155 1.014 0.334 1.344 0.491zM5.47 8.963c-0.628 1.292-0.731 1.469-1.906 2.294 0.38 0.153 0.761 0.321 1.169 0.374 0.509 0.022 1.173 0.071 1.576-0.289 0.586-0.522-0.276-2.181-0.839-2.379zM26.5 25.362c0.624 0.731 1.357 1.486 2.016 2.183 1.294 1.366 3.958 4.068 6.080 3.657-0.132-0.266-1.703-1.867-2.019-2.199l-3.379-3.555c-0.855-0.033-1.853-0.085-2.699-0.086zM1.937 6.318c-0.794 0.763-1.109 1.868-1.112 2.936-0.005 1.697 0.714 2.681 1.757 3.88-0.028-0.524-0.045-0.798 0.029-1.325 0.037-0.259 0.134-0.623 0.296-0.836 0.644-0.846 2.552-2.025 1.665-3.274-0.5-0.704-1.775-1.332-2.635-1.382zM7.446 3.436c-1.822 0.362-2.644 1.186-3.078 2.964 0.532 0.558 0.918 1.199 1.372 1.702 1.125 1.248 1.502 1.299 1.498 3.178 0.299-0.093 0.64-0.209 0.939-0.289 2.252-0.924 3.888-2.89 2.875-5.382-0.344-0.854-1.019-1.533-1.873-1.885-0.482-0.203-1.208-0.352-1.732-0.287z"></path>
      <path d="M8.815 5.303c1.051 0.237-0.010 1.479-0.571 1.71-0.751 0.309-1.080 0.23-1.805-0.020-0.219-0.157-0.496-0.409-0.416-0.686 0.364-0.23 1.19 0.133 1.67 0.097 0.524-0.039 0.711-0.662 1.088-1.064l0.035-0.037z"></path>
    </symbol>
    <symbol id="hamster" viewBox="0 0 58 32">
      <path d="M22.614 0.007c0.607-0.035 1.215 0.062 1.781 0.284 1.189 0.465 1.926 1.285 2.426 2.432 0.415-0.239 1.445-0.678 1.913-0.866 5.542-2.228 11.423-2.495 16.972-0.15 4.436 1.841 7.956 5.375 9.78 9.818 1.644 4.181 1.579 8.841-0.182 12.975 1.351-0.036 2.631 0.178 2.302 2.031-0.165 0.935-1.157 1.809-1.934 2.304-1.559 0.993-3.458 1.126-5.253 1.212-0.243 0.012-1.205 0.489-1.52 0.612-0.75 0.277-1.6 0.628-2.392 0.76-3.796 0.632-7.732 0.423-11.567 0.485-0.664 0.011-1.365 0.034-1.997-0.12-0.58-0.248-0.707-0.392-0.865-1.006-1.811-0.036-3.717-0.039-5.527 0.038-0.509 0.022-1.256 0.323-1.773 0.476-0.592 0.171-1.193 0.308-1.801 0.409-1.786 0.3-4.242 0.175-6.088 0.195-1.432 0.016-3.152 0.052-4.558-0.134-0.861-0.114-1.117-0.543-1.596-1.215-1.172 1.416-3.276 1.068-4.749 0.311-1.505-0.772-1.91-2.335-1.377-3.883-0.341-0.168-0.675-0.348-1.002-0.541-3.639-2.171-4.637-6.325-2.472-9.892 0.301-0.587 1.050-1.43 1.22-2.053 0.589-2.165 1.057-3.727 2.24-5.692-0.119-0.186-0.242-0.398-0.35-0.591-0.662-1.204-0.823-2.62-0.448-3.941 0.471-1.634 2.125-3.793 4.090-3.243 1.21 0.339 1.75 1.768 2.269 2.8 3.241-1.204 5.094-1.279 8.471-0.903 0.936-1.504 2.159-2.734 3.989-2.911zM18.008 3.997c-3.822-0.381-6.922 0.16-10.017 2.628-1.7 1.356-3.139 3.668-3.788 5.735-0.245 0.783-0.555 2.225-0.899 2.887-0.844 1.623-1.906 2.664-2.094 4.615-0.144 1.501 0.312 2.928 1.278 4.096 1.712 2.069 4.143 2.601 6.606 3.173-0.502-0.652-0.701-0.938-1.071-1.662-0.574-0.318-1.916-1.271-1.535-2.054 1.061-0.781 1.159 1.431 2.343 0.959 0.565-0.225 1.462-1.719 1.843-0.769 0.303 0.755-0.898 1.52-1.421 1.773 0.355 0.762 0.85 1.258 1.648 1.583 1.494 0.609 2.794-0.253 4.181-0.482 3.915-0.645 9.359-1.954 10.84-6.185 0.241-0.682 0.348-1.403 0.315-2.125-0.034-0.913-0.542-2.090-0.144-2.619 0.527-0.219 0.957 0.494 1.063 0.918 1.404 5.624-3.086 8.828-7.759 10.232-0.84 0.252-1.69 0.465-2.549 0.639-1.437 0.303-3.971 0.599-4.762 1.979-0.128 0.224-0.22 0.532-0.296 0.783 0.512-0.395 1.325-1.096 2.013-1.060 0.28 0.014 0.366 0.298 0.337 0.545-0.186 0.357-0.977 0.546-1.547 1.112l5.273 0.003c3.565 0 7.516 0.159 10.273-2.601 0.843-0.84 1.474-1.867 1.843-2.998 0.144-0.429 0.387-1.674 0.853-1.71 0.15-0.011 0.298 0.042 0.409 0.144 0.7 0.66-0.804 3.592-1.302 4.252-0.562 0.745-1.036 1.228-1.733 1.842 0.54-0.013 3.895 0.051 4.087-0.098 1.182-1.892 3.344-2.029 5.389-2.010-2.008-1.924-3.071-3.705-3.169-6.572-0.135-3.953 2.71-7.8 6.689-8.401 0.478-0.072 0.697 0.225 0.606 0.68-0.379 0.443-1.553 0.712-2.131 1.003-5.132 2.59-5.324 9.902-0.482 12.916 0.502 0.313 2.388 0.799 1.82 1.602-0.522 0.338-1.623-0.005-2.289-0.041-1.575-0.084-4.039-0.247-5.169 1.084-0.218 0.257-0.304 0.547-0.405 0.852 0.252 0.039 0.469 0.073 0.724 0.095 0.379-0.624 1.679-1.853 2.376-1.201 0.11 0.585-0.794 0.917-1.21 1.216l4.506-0.061c4.459-0.017 9.163-0.060 12.466-3.506 2.486-2.594 3.557-6.109 3.478-9.654-0.099-4.307-1.923-8.394-5.061-11.345-5.679-5.401-14.581-6.28-21.545-3.071-0.561 0.258-1.183 0.451-1.741 0.719 0.148 1.61-0.097 2.901-1.145 4.212-0.825 1.003-2.062 1.651-3.33 1.876-0.195 0.035-0.496-0.011-0.616-0.165-0.642-0.826 0.979-1.106 1.374-1.258 1.297-0.499 2.178-1.573 2.486-2.913 0.537-2.134-0.853-4.645-3.294-4.392-1.833 0.295-2.558 1.682-3.445 3.14-0.289 0.475-1.425 2.623-1.998 1.317-0.084-0.196 0.705-1.398 0.83-1.656zM54.803 25.713c-0.304 0.145-0.678 0.825-0.93 1.151-0.555 0.716-1.112 1.292-1.75 1.923 0.444-0.084 0.989-0.169 1.41-0.305 1.146-0.332 3.003-1.207 2.968-2.618-0.219-0.289-1.338-0.163-1.698-0.151zM8.906 30.409c-0.349-0.316-0.873-0.675-0.976-1.103 0.088-0.304 0.216-0.33 0.534-0.354 0.674 0.306 0.846 0.557 1.355 1.075 0.012-2.069-2.533-2.030-4.199-2.631-0.617 2.346 1.481 2.863 3.286 3.012zM7.141 2.084c-1.909 0.635-2.816 3.083-2.164 4.905 0.084 0.235 0.218 0.488 0.331 0.713 0.224-0.259 0.487-0.579 0.718-0.822 0.927-1.070 1.921-1.75 3.112-2.504-0.479-0.853-0.9-2.325-1.997-2.292z"></path>
      <path d="M22.11 2.119c0.358 0.036 0.821 0.297 0.597 0.68-0.357 0.61-0.748 1.024-1.031 1.697-0.445 1.055-0.132 2.012-0.308 3.088-0.036 0.205-0.232 0.299-0.406 0.393-0.215-0.029-0.513-0.073-0.59-0.323-0.49-1.596 0.112-4.72 1.738-5.535z"></path>
      <path d="M17.297 16.071c1.977 0.088-0.51 3.888-3.735 2.304-0.404-0.245-0.902-0.659-0.439-1.138 0.568-0.265 1.395 0.425 2.137 0.427 1.359 0.003 1.314-0.975 2.036-1.592z"></path>
      <path d="M3.885 16.439c0.795 0 0.698 0.407 1.22 0.881 0.611 0.555 1.554-0.404 2.104 0.044 0.23 0.419 0.073 0.623-0.226 0.921-1.776 1.023-4.191-0.694-3.098-1.846z"></path>
    </symbol>
    <symbol id="check" viewBox="0 0 32 32">
      <path d="M26.278 8.389c0.124 0.124 0.223 0.271 0.29 0.433s0.102 0.336 0.102 0.511c0 0.175-0.035 0.349-0.102 0.511s-0.166 0.309-0.29 0.433l-12 12c-0.124 0.124-0.271 0.223-0.433 0.29s-0.336 0.102-0.511 0.102c-0.175 0-0.349-0.035-0.511-0.102s-0.309-0.166-0.433-0.29l-5.333-5.333c-0.25-0.25-0.391-0.59-0.391-0.944s0.141-0.694 0.391-0.944 0.59-0.391 0.944-0.391c0.354 0 0.694 0.141 0.944 0.391l4.389 4.392 11.056-11.059c0.124-0.124 0.271-0.223 0.433-0.29s0.336-0.102 0.511-0.102c0.175 0 0.349 0.035 0.511 0.102s0.309 0.166 0.433 0.29z"></path>
    </symbol>
    <symbol id="star" viewBox="0 0 32 32">
      <path stroke-linejoin="round" stroke-linecap="round" stroke-miterlimit="4" stroke-width="1.3333" d="M16.66 4.179c0.2 0.117 0.365 0.286 0.479 0.488 1.116 2.023 2.034 4.15 2.743 6.349 0.098 0.285 0.281 0.534 0.525 0.711s0.537 0.275 0.839 0.28c1.908 0.048 3.809 0.238 5.689 0.567 1.033 0.181 1.42 1.357 0.687 2.075-1.422 1.391-2.942 2.68-4.547 3.856-0.491 0.359-0.691 0.973-0.504 1.536 0.591 1.776 1.043 3.596 1.351 5.443 0.061 0.373 0.118 0.749 0.169 1.127 0.133 1.007-0.945 1.717-1.88 1.237-1.856-0.951-3.631-2.054-5.307-3.296-0.262-0.192-0.579-0.295-0.904-0.295s-0.641 0.103-0.904 0.295c-1.676 1.242-3.451 2.344-5.307 3.296-0.936 0.48-2.013-0.231-1.88-1.237 0.3-2.233 0.809-4.432 1.52-6.569 0.187-0.563-0.015-1.177-0.504-1.536-1.415-1.039-2.764-2.164-4.040-3.369-0.171-0.16-0.34-0.322-0.507-0.487-0.733-0.717-0.345-1.893 0.687-2.075 1.88-0.327 3.782-0.517 5.689-0.567 0.629-0.017 1.179-0.416 1.364-0.991 0.538-1.671 1.198-3.3 1.973-4.875 0.246-0.498 0.503-0.989 0.769-1.475 0.113-0.202 0.279-0.371 0.479-0.488s0.428-0.179 0.66-0.179c0.232 0 0.46 0.062 0.66 0.179z"></path>
    </symbol>
    <symbol id="filter" viewBox="0 0 32 32">
      <path d="M10.669 4.667c-1.493 0-2.756 0.981-3.181 2.333h-2.152c-0.265 0-0.52 0.105-0.707 0.293s-0.293 0.442-0.293 0.707c0 0.265 0.105 0.52 0.293 0.707s0.442 0.293 0.707 0.293h2.152c0.213 0.677 0.636 1.269 1.208 1.689s1.263 0.646 1.973 0.646c0.71 0 1.401-0.226 1.973-0.646s0.995-1.012 1.208-1.689h12.819c0.265 0 0.519-0.105 0.707-0.293s0.293-0.442 0.293-0.707-0.105-0.52-0.293-0.707c-0.188-0.188-0.442-0.293-0.707-0.293h-12.819c-0.213-0.677-0.636-1.268-1.208-1.688s-1.263-0.646-1.973-0.645zM8.669 8c0-0.53 0.211-1.039 0.586-1.414s0.884-0.586 1.414-0.586c0.53 0 1.039 0.211 1.414 0.586s0.586 0.884 0.586 1.414c0 0.53-0.211 1.039-0.586 1.414s-0.884 0.586-1.414 0.586c-0.53 0-1.039-0.211-1.414-0.586s-0.586-0.884-0.586-1.414zM24.517 17c-0.213 0.677-0.636 1.268-1.208 1.687s-1.263 0.646-1.972 0.646c-0.709 0-1.4-0.226-1.972-0.646s-0.995-1.011-1.208-1.687h-12.82c-0.265 0-0.52-0.105-0.707-0.293s-0.293-0.442-0.293-0.707 0.105-0.52 0.293-0.707c0.188-0.187 0.442-0.293 0.707-0.293h12.82c0.213-0.676 0.637-1.267 1.209-1.686s1.262-0.645 1.971-0.645c0.709 0 1.399 0.226 1.971 0.645s0.995 1.010 1.209 1.686h2.153c0.265 0 0.519 0.105 0.707 0.293s0.293 0.442 0.293 0.707-0.105 0.52-0.293 0.707c-0.188 0.188-0.442 0.293-0.707 0.293h-2.152zM19.336 16c0 0.53 0.211 1.039 0.586 1.414s0.884 0.586 1.414 0.586c0.53 0 1.039-0.211 1.414-0.586s0.586-0.884 0.586-1.414c0-0.53-0.211-1.039-0.586-1.414s-0.884-0.586-1.414-0.586c-0.531 0-1.039 0.211-1.414 0.586s-0.586 0.884-0.586 1.414zM10.669 20.667c-1.493 0-2.756 0.981-3.181 2.333h-2.152c-0.265 0-0.52 0.105-0.707 0.293s-0.293 0.442-0.293 0.707 0.105 0.52 0.293 0.707c0.188 0.188 0.442 0.293 0.707 0.293h2.152c0.213 0.677 0.636 1.269 1.208 1.689s1.263 0.646 1.973 0.646c0.71 0 1.401-0.226 1.973-0.646s0.995-1.012 1.208-1.689h12.819c0.265 0 0.519-0.105 0.707-0.293s0.293-0.442 0.293-0.707-0.105-0.52-0.293-0.707c-0.188-0.187-0.442-0.293-0.707-0.293h-12.819c-0.213-0.677-0.636-1.268-1.208-1.688s-1.263-0.646-1.973-0.645zM8.669 24c0-0.53 0.211-1.039 0.586-1.414s0.884-0.586 1.414-0.586c0.53 0 1.039 0.211 1.414 0.586s0.586 0.884 0.586 1.414c0 0.53-0.211 1.039-0.586 1.414s-0.884 0.586-1.414 0.586c-0.53 0-1.039-0.211-1.414-0.586s-0.586-0.884-0.586-1.414z"></path>
      <path d="M10.669 4.667c-1.493 0-2.756 0.981-3.181 2.333h-2.152c-0.265 0-0.52 0.105-0.707 0.293s-0.293 0.442-0.293 0.707c0 0.265 0.105 0.52 0.293 0.707s0.442 0.293 0.707 0.293h2.152c0.213 0.677 0.636 1.269 1.208 1.689s1.263 0.646 1.973 0.646c0.71 0 1.401-0.226 1.973-0.646s0.995-1.012 1.208-1.689h12.819c0.265 0 0.519-0.105 0.707-0.293s0.293-0.442 0.293-0.707-0.105-0.52-0.293-0.707c-0.188-0.188-0.442-0.293-0.707-0.293h-12.819c-0.213-0.677-0.636-1.268-1.208-1.688s-1.263-0.646-1.973-0.645zM8.669 8c0-0.53 0.211-1.039 0.586-1.414s0.884-0.586 1.414-0.586c0.53 0 1.039 0.211 1.414 0.586s0.586 0.884 0.586 1.414c0 0.53-0.211 1.039-0.586 1.414s-0.884 0.586-1.414 0.586c-0.53 0-1.039-0.211-1.414-0.586s-0.586-0.884-0.586-1.414zM24.517 17c-0.213 0.677-0.636 1.268-1.208 1.687s-1.263 0.646-1.972 0.646c-0.709 0-1.4-0.226-1.972-0.646s-0.995-1.011-1.208-1.687h-12.82c-0.265 0-0.52-0.105-0.707-0.293s-0.293-0.442-0.293-0.707 0.105-0.52 0.293-0.707c0.188-0.187 0.442-0.293 0.707-0.293h12.82c0.213-0.676 0.637-1.267 1.209-1.686s1.262-0.645 1.971-0.645c0.709 0 1.399 0.226 1.971 0.645s0.995 1.010 1.209 1.686h2.153c0.265 0 0.519 0.105 0.707 0.293s0.293 0.442 0.293 0.707-0.105 0.52-0.293 0.707c-0.188 0.188-0.442 0.293-0.707 0.293h-2.152zM19.336 16c0 0.53 0.211 1.039 0.586 1.414s0.884 0.586 1.414 0.586c0.53 0 1.039-0.211 1.414-0.586s0.586-0.884 0.586-1.414c0-0.53-0.211-1.039-0.586-1.414s-0.884-0.586-1.414-0.586c-0.531 0-1.039 0.211-1.414 0.586s-0.586 0.884-0.586 1.414zM10.669 20.667c-1.493 0-2.756 0.981-3.181 2.333h-2.152c-0.265 0-0.52 0.105-0.707 0.293s-0.293 0.442-0.293 0.707 0.105 0.52 0.293 0.707c0.188 0.188 0.442 0.293 0.707 0.293h2.152c0.213 0.677 0.636 1.269 1.208 1.689s1.263 0.646 1.973 0.646c0.71 0 1.401-0.226 1.973-0.646s0.995-1.012 1.208-1.689h12.819c0.265 0 0.519-0.105 0.707-0.293s0.293-0.442 0.293-0.707-0.105-0.52-0.293-0.707c-0.188-0.187-0.442-0.293-0.707-0.293h-12.819c-0.213-0.677-0.636-1.268-1.208-1.688s-1.263-0.646-1.973-0.645zM8.669 24c0-0.53 0.211-1.039 0.586-1.414s0.884-0.586 1.414-0.586c0.53 0 1.039 0.211 1.414 0.586s0.586 0.884 0.586 1.414c0 0.53-0.211 1.039-0.586 1.414s-0.884 0.586-1.414 0.586c-0.53 0-1.039-0.211-1.414-0.586s-0.586-0.884-0.586-1.414z"></path>
    </symbol>
    <symbol id="cross" viewBox="0 0 32 32">
      <path d="M7.292 7.293c0.188-0.187 0.442-0.292 0.707-0.292s0.519 0.105 0.707 0.292l16 16c0.098 0.091 0.177 0.202 0.232 0.325s0.084 0.255 0.086 0.389c0.002 0.134-0.022 0.268-0.073 0.392s-0.125 0.238-0.22 0.333-0.208 0.17-0.333 0.22c-0.125 0.050-0.258 0.075-0.392 0.073s-0.267-0.032-0.389-0.086c-0.123-0.055-0.233-0.133-0.325-0.232l-16-16c-0.187-0.188-0.292-0.442-0.292-0.707s0.105-0.519 0.292-0.707z"></path>
      <path d="M7.292 7.293c0.188-0.187 0.442-0.292 0.707-0.292s0.519 0.105 0.707 0.292l16 16c0.098 0.091 0.177 0.202 0.232 0.325s0.084 0.255 0.086 0.389c0.002 0.134-0.022 0.268-0.073 0.392s-0.125 0.238-0.22 0.333-0.208 0.17-0.333 0.22c-0.125 0.050-0.258 0.075-0.392 0.073s-0.267-0.032-0.389-0.086c-0.123-0.055-0.233-0.133-0.325-0.232l-16-16c-0.187-0.188-0.292-0.442-0.292-0.707s0.105-0.519 0.292-0.707z"></path>
      <path d="M24.705 7.293c0.187 0.188 0.292 0.442 0.292 0.707s-0.105 0.519-0.292 0.707l-16 16c-0.19 0.177-0.44 0.273-0.699 0.268s-0.506-0.109-0.689-0.293-0.288-0.43-0.293-0.689c-0.005-0.259 0.092-0.51 0.268-0.699l16-16c0.187-0.187 0.442-0.292 0.707-0.292s0.519 0.105 0.707 0.292z"></path>
      <path d="M24.705 7.293c0.187 0.188 0.292 0.442 0.292 0.707s-0.105 0.519-0.292 0.707l-16 16c-0.19 0.177-0.44 0.273-0.699 0.268s-0.506-0.109-0.689-0.293-0.288-0.43-0.293-0.689c-0.005-0.259 0.092-0.51 0.268-0.699l16-16c0.187-0.187 0.442-0.292 0.707-0.292s0.519 0.105 0.707 0.292z"></path>
    </symbol>
    <symbol id="arrow" viewBox="0 0 32 32">
      <path stroke-linejoin="round" stroke-linecap="round" stroke-miterlimit="4" stroke-width="1.3333" d="M9.333 13.333l6.667 6.667 6.667-6.667"></path>
    </symbol>
    <symbol id="price-range" viewBox="0 0 56 32">
      <path d="M47.935 0c3.842 0 6.957 3.115 6.957 6.957v11.13c0 3.842-3.114 6.957-6.957 6.957h-16.516l-2.757 4.927c-0.531 0.949-1.897 0.949-2.428 0l-2.757-4.927h-16.52c-3.842 0-6.957-3.115-6.957-6.957v-11.13c0-3.842 3.115-6.957 6.957-6.957h40.978z"></path>
    </symbol>
    <symbol id="icon-right" viewBox="0 0 32 32">
      <path stroke-linejoin="round" stroke-linecap="round" stroke-miterlimit="4" stroke-width="2" d="M13.333 22.667l6.667-6.667-6.667-6.667"></path>
    </symbol>
    <symbol id="icon-left" viewBox="0 0 32 32">
      <path stroke-linejoin="round" stroke-linecap="round" stroke-miterlimit="4" stroke-width="2" d="M18.667 9.333l-6.667 6.667 6.667 6.667"></path>
    </symbol>
    <symbol id="theme-switcher-header-dark" viewBox="0 0 71 32">
      <path fill="#222" style="fill: var(--color1, #222)" d="M16 0h38.857c8.837 0 16 7.163 16 16s-7.163 16-16 16h-38.857c-8.837 0-16-7.163-16-16s7.163-16 16-16z"></path>
      <path fill="#111" style="fill: var(--color2, #111)" d="M16 4.571h5.714c6.312 0 11.429 5.117 11.429 11.429s-5.117 11.429-11.429 11.429h-5.714c-6.312 0-11.429-5.117-11.429-11.429s5.117-11.429 11.429-11.429z"></path>
      <path fill="#fff" style="fill: var(--color3, #fff)" d="M16.796 12.87c-0.97 0.661-1.606 1.774-1.606 3.033 0 2.025 1.642 3.667 3.667 3.667 1.26 0 2.373-0.636 3.033-1.606-2.676-0.293-4.802-2.418-5.094-5.094zM22.524 16.952c0.454 0 0.844 0.4 0.665 0.816-0.723 1.677-2.39 2.85-4.331 2.85-2.604 0-4.714-2.111-4.714-4.714 0-1.941 1.174-3.609 2.85-4.331 0.417-0.18 0.816 0.211 0.816 0.665 0 2.604 2.111 4.714 4.714 4.714z"></path>
      <path fill="#fff" style="fill: var(--color3, #fff)" d="M52 19.143c1.736 0 3.143-1.407 3.143-3.143s-1.407-3.143-3.143-3.143c-1.736 0-3.143 1.407-3.143 3.143s1.407 3.143 3.143 3.143z"></path>
      <path fill="#fff" style="fill: var(--color3, #fff)" d="M51.997 10.5c0.289 0 0.524 0.235 0.524 0.524v0.524c0 0.289-0.234 0.524-0.524 0.524s-0.524-0.235-0.524-0.524v-0.524c0-0.289 0.234-0.524 0.524-0.524z"></path>
      <path fill="#fff" style="fill: var(--color3, #fff)" d="M51.997 19.929c0.289 0 0.524 0.235 0.524 0.524v0.522c0 0.289-0.234 0.524-0.524 0.524s-0.524-0.235-0.524-0.524v-0.522c0-0.289 0.234-0.524 0.524-0.524z"></path>
      <path fill="#fff" style="fill: var(--color3, #fff)" d="M46.498 15.999c0-0.289 0.234-0.524 0.524-0.524h0.524c0.289 0 0.524 0.235 0.524 0.524s-0.234 0.524-0.524 0.524h-0.524c-0.289 0-0.524-0.235-0.524-0.524z"></path>
      <path fill="#fff" style="fill: var(--color3, #fff)" d="M55.926 15.999c0-0.289 0.235-0.524 0.524-0.524h0.522c0.289 0 0.524 0.235 0.524 0.524s-0.234 0.524-0.524 0.524h-0.522c-0.289 0-0.524-0.235-0.524-0.524z"></path>
      <path fill="#fff" style="fill: var(--color3, #fff)" d="M48.108 19.888c-0.205-0.205-0.205-0.536 0-0.741l0.37-0.37c0.205-0.205 0.536-0.205 0.741 0s0.205 0.536 0 0.741l-0.37 0.37c-0.205 0.205-0.536 0.205-0.741 0z"></path>
      <path fill="#fff" style="fill: var(--color3, #fff)" d="M54.776 13.221c-0.205-0.205-0.205-0.536 0-0.741l0.369-0.369c0.205-0.205 0.536-0.205 0.741 0s0.205 0.536 0 0.741l-0.369 0.369c-0.205 0.204-0.536 0.204-0.741 0z"></path>
      <path fill="#fff" style="fill: var(--color3, #fff)" d="M48.108 12.111c0.205-0.205 0.536-0.205 0.741 0l0.37 0.37c0.205 0.205 0.205 0.536 0 0.741s-0.536 0.205-0.741 0l-0.37-0.37c-0.205-0.205-0.205-0.536 0-0.741z"></path>
      <path fill="#fff" style="fill: var(--color3, #fff)" d="M54.776 18.778c0.204-0.205 0.536-0.205 0.741 0l0.369 0.369c0.205 0.205 0.205 0.536 0 0.741s-0.536 0.205-0.741 0l-0.369-0.369c-0.205-0.204-0.205-0.536 0-0.741z"></path>
    </symbol>
    <symbol id="theme-switcher-mob-menu-dark" viewBox="0 0 54 32">
      <path fill="#45b382" style="fill: var(--color4, #45b382)" d="M16 0h22.4c8.837 0 16 7.163 16 16s-7.163 16-16 16h-22.4c-8.837 0-16-7.163-16-16s7.163-16 16-16z"></path>
      <path fill="#fefefe" style="fill: var(--color5, #fefefe)" d="M38.4 3.2c7.069 0 12.8 5.731 12.8 12.8s-5.731 12.8-12.8 12.8c-7.069 0-12.8-5.731-12.8-12.8s5.731-12.8 12.8-12.8z"></path>
    </symbol>
    <symbol id="paw" viewBox="0 0 32 32">
      <path d="M20.143 5.143c-0.743 0-1.571 0.76-1.571 2s0.829 2 1.571 2c0.743 0 1.571-0.76 1.571-2s-0.829-2-1.571-2zM16.857 7.143c0-1.915 1.346-3.714 3.286-3.714s3.286 1.799 3.286 3.714-1.345 3.714-3.286 3.714c-1.941 0-3.286-1.799-3.286-3.714zM4.714 9.143c-0.743 0-1.571 0.76-1.571 2s0.829 2 1.571 2c0.743 0 1.571-0.76 1.571-2s-0.829-2-1.571-2zM1.429 11.143c0-1.915 1.346-3.714 3.286-3.714s3.286 1.799 3.286 3.714c0 1.915-1.346 3.714-3.286 3.714s-3.286-1.799-3.286-3.714zM16 14.286c-1.015 0-2.020 0.208-2.951 0.611s-1.771 0.993-2.465 1.734-1.23 1.615-1.574 2.57c-0.343 0.955-0.487 1.971-0.423 2.984 0.070 1.126 0.69 1.982 1.673 2.587 1.003 0.617 2.349 0.942 3.691 0.942h4.097c1.344 0 2.689-0.326 3.691-0.943 0.984-0.606 1.605-1.461 1.674-2.586 0.064-1.013-0.080-2.029-0.423-2.984s-0.879-1.83-1.574-2.57c-0.695-0.74-1.534-1.33-2.465-1.734s-1.936-0.611-2.951-0.611zM6.857 21.714c0-1.225 0.246-2.437 0.724-3.565s1.177-2.148 2.057-3.001c0.88-0.852 1.922-1.519 3.064-1.961s2.362-0.649 3.587-0.611c1.224 0.039 2.428 0.323 3.541 0.836s2.11 1.245 2.934 2.151c0.824 0.906 1.458 1.969 1.863 3.125s0.574 2.381 0.497 3.604c-0.112 1.799-1.138 3.11-2.486 3.939-1.33 0.818-3.005 1.197-4.591 1.197h-4.096c-1.587 0-3.261-0.378-4.591-1.197-1.349-0.83-2.374-2.141-2.486-3.939-0.012-0.193-0.018-0.385-0.018-0.578zM25.714 11.143c0-1.24 0.829-2 1.571-2s1.571 0.76 1.571 2-0.829 2-1.571 2c-0.743 0-1.571-0.76-1.571-2zM27.286 7.429c-1.941 0-3.286 1.799-3.286 3.714s1.345 3.714 3.286 3.714c1.941 0 3.286-1.799 3.286-3.714s-1.345-3.714-3.286-3.714zM10.286 7.143c0-1.24 0.829-2 1.571-2s1.571 0.76 1.571 2c0 1.24-0.829 2-1.571 2s-1.571-0.76-1.571-2zM11.857 3.429c-1.939 0-3.286 1.799-3.286 3.714s1.346 3.714 3.286 3.714c1.939 0 3.286-1.799 3.286-3.714s-1.346-3.714-3.286-3.714z"></path>
    </symbol>
  </defs>
</svg>