<svg aria-hidden="true" style="position: absolute; width: 0; height: 0; overflow: hidden;" version="1.1" xmlns="http://www.w3.org/2000/svg" xmlns:xlink="http://www.w3.org/1999/xlink">
    <defs>
        <symbol id="logo" viewBox="0 0 34 32">
            <path d="M8.458 13.364c0 0.671-0.541 1.215-1.208 1.215s-1.208-0.544-1.208-1.215c0-0.671 0.541-1.215 1.208-1.215s1.208 0.544 1.208 1.215z"></path>
            <path d="M25.373 13.607c0 0.671 0.541 1.215 1.208 1.215s1.208-0.544 1.208-1.215c0-0.671-0.541-1.215-1.208-1.215s-1.208 0.544-1.208 1.215z"></path>
            <path d="M7.974 18.71c0 0.671-0.541 1.215-1.208 1.215s-1.208-0.544-1.208-1.215c0-0.671 0.541-1.215 1.208-1.215s1.208 0.544 1.208 1.215z"></path>
            <path d="M25.856 18.953c0 0.671 0.541 1.215 1.208 1.215s1.208-0.544 1.208-1.215c0-0.671-0.541-1.215-1.208-1.215s-1.208 0.544-1.208 1.215z"></path>
            <path d="M12.807 17.981c0 0.671-0.541 1.215-1.208 1.215s-1.208-0.544-1.208-1.215c0-0.671 0.541-1.215 1.208-1.215s1.208 0.544 1.208 1.215z"></path>
            <path d="M21.023 18.224c0 0.671 0.541 1.215 1.208 1.215s1.208-0.544 1.208-1.215c0-0.671-0.541-1.215-1.208-1.215s-1.208 0.544-1.208 1.215z"></path>
            <path d="M19.945 0.010c1.925-0.101 3.221 0.526 4.132 2.341 1.739 3.465-1.166 7.038-3.443 9.421-0.478 0.5-2.309 1.963-2.881 2.238 0.013 1.328-0.175 6.134 0.223 7.045 0.708 1.621 2.099 2.515 3.694 3.118 1.452 0.549 3.476 0.619 4.979 0.263 0.558-0.132 1.093-0.358 1.613-0.596 1.257-0.576 2.86-1.917 3.275-3.288 0.19-0.628 0.161-1.277 0.396-1.908 0.6-0.121 0.712-0.149 1.305-0.012 0.101 0.129 0.256 0.392 0.349 0.539 0.005 0.276 0.027 0.635-0.002 0.903-0.441 4.101-5.138 6.721-8.865 6.45-1.051 2.71-3.578 4.896-6.465 5.333-2.546 0.386-4.319 0.007-6.481-1.318-1.145-1.055-2.592-2.193-2.99-3.861-2.642 0.007-4.946-0.826-6.879-2.648-1.153-1.086-1.858-2.444-1.903-4.048-0.008-0.278 0.003-0.675 0.213-0.886 0.194-0.196 0.507-0.41 0.795-0.406 0.979 0.015 0.873 1.621 1.127 2.232 0.258 0.62 0.75 1.253 1.22 1.726 1.464 1.472 3.512 2.103 5.545 2.096 1.834-0.006 4.15-0.566 5.484-1.927 0.516-0.527 1.087-1.215 1.316-1.932 0.258-0.807 0.125-5.654 0.116-6.861-0.114-0.050-0.227-0.103-0.337-0.161-0.566-0.301-0.974-0.57-1.461-0.986-0.431-0.187-0.955-0.831-1.306-1.175-1.352-1.255-3.073-3.504-3.664-5.205-0.379-1.303-0.373-2.977 0.286-4.195 1.896-3.501 6.162-2.77 7.254 0.933l0.101 0.039c0.092-0.077 0.212-0.463 0.263-0.6 0.474-1.282 1.642-2.392 2.991-2.665zM10.769 26.476c0.3 0.397 0.683 0.991 0.976 1.334 1.057 1.21 2.51 1.999 4.095 2.226 0.253 0.035 0.453 0.060 0.708 0.059 1.817 0.011 3.561-0.717 4.835-2.020 0.448-0.451 0.834-1.057 1.107-1.632-2.691-0.672-3.816-1.208-5.714-3.305-0.116 0.271-0.334 0.457-0.526 0.674-1.238 1.401-3.598 2.646-5.481 2.665z"></path>
        </symbol>
        <symbol id="heart" viewBox="0 0 32 32">
            <path stroke-linejoin="round" stroke-linecap="butt" stroke-miterlimit="4" stroke-width="2" d="M29.333 11.816c0.005 2.052-0.786 4.025-2.205 5.507-3.255 3.375-6.412 6.893-9.787 10.144-0.775 0.733-2.003 0.707-2.743-0.060l-9.727-10.083c-2.94-3.048-2.94-7.968 0-11.015 0.695-0.729 1.531-1.31 2.457-1.707s1.923-0.601 2.93-0.601c1.007 0 2.004 0.205 2.93 0.601s1.762 0.977 2.457 1.707l0.355 0.365 0.353-0.365c0.696-0.728 1.532-1.308 2.457-1.705s1.922-0.602 2.929-0.604c2.027 0 3.964 0.832 5.387 2.309 1.42 1.481 2.211 3.455 2.207 5.507z"></path>
        </symbol>
        <symbol id="burger-menu" viewBox="0 0 32 32">
            <path d="M5.333 24c-0.378 0-0.694-0.128-0.949-0.384s-0.383-0.572-0.384-0.949c-0.001-0.377 0.127-0.693 0.384-0.949s0.573-0.384 0.949-0.384h21.333c0.378 0 0.695 0.128 0.951 0.384s0.384 0.572 0.383 0.949c-0.001 0.377-0.129 0.694-0.384 0.951s-0.572 0.384-0.949 0.383h-21.333zM5.333 17.333c-0.378 0-0.694-0.128-0.949-0.384s-0.383-0.572-0.384-0.949c-0.001-0.377 0.127-0.693 0.384-0.949s0.573-0.384 0.949-0.384h21.333c0.378 0 0.695 0.128 0.951 0.384s0.384 0.572 0.383 0.949c-0.001 0.377-0.129 0.694-0.384 0.951s-0.572 0.384-0.949 0.383h-21.333zM5.333 10.667c-0.378 0-0.694-0.128-0.949-0.384s-0.383-0.572-0.384-0.949c-0.001-0.377 0.127-0.693 0.384-0.949s0.573-0.384 0.949-0.384h21.333c0.378 0 0.695 0.128 0.951 0.384s0.384 0.572 0.383 0.949c-0.001 0.377-0.129 0.694-0.384 0.951s-0.572 0.384-0.949 0.383h-21.333z"></path>
        </symbol>
        <symbol id="user" viewBox="0 0 32 32">
            <path stroke-linejoin="miter" stroke-linecap="butt" stroke-miterlimit="4" stroke-width="2" d="M16 13.333c2.945 0 5.333-2.388 5.333-5.333s-2.388-5.333-5.333-5.333c-2.946 0-5.333 2.388-5.333 5.333s2.388 5.333 5.333 5.333z"></path>
            <path stroke-linejoin="miter" stroke-linecap="butt" stroke-miterlimit="4" stroke-width="2" d="M26.667 23.333c0 3.313 0 6-10.667 6s-10.667-2.687-10.667-6c0-3.313 4.776-6 10.667-6s10.667 2.687 10.667 6z"></path>
        </symbol>
    </defs>
</svg>