<svg width="42" height="40" viewBox="0 0 42 40" fill="none" xmlns="http://www.w3.org/2000/svg">
    <ellipse cx="9.06181" cy="16.705" rx="1.51029" ry="1.51865" fill="#85A3C9" />
    <ellipse cx="1.51029" cy="1.51865" rx="1.51029" ry="1.51865" transform="matrix(-1 0 0 1 34.7368 15.4903)" fill="#85A3C9" />
    <ellipse cx="8.45756" cy="23.3873" rx="1.51029" ry="1.51865" fill="#85A3C9" />
    <ellipse cx="1.51029" cy="1.51865" rx="1.51029" ry="1.51865" transform="matrix(-1 0 0 1 35.3408 22.1723)" fill="#85A3C9" />
    <ellipse cx="14.4988" cy="22.476" rx="1.51029" ry="1.51865" fill="#85A3C9" />
    <ellipse cx="1.51029" cy="1.51865" rx="1.51029" ry="1.51865" transform="matrix(-1 0 0 1 29.2998 21.2611)" fill="#85A3C9" />
    <path d="M24.9315 0.012953C27.3376 -0.113314 28.9583 0.670518 30.0966 2.93919C32.2698 7.2702 28.6396 11.7369 25.7931 14.7152C25.1954 15.3406 22.9069 17.1688 22.1921 17.5121C22.2078 19.172 21.9735 25.1794 22.4707 26.3183C23.3553 28.3447 25.0944 29.4625 27.0879 30.2159C28.9032 30.902 31.4327 30.9899 33.3111 30.5441C34.0086 30.3786 34.6777 30.0965 35.3279 29.7985C36.8992 29.0786 38.9025 27.4028 39.4218 25.6886C39.6594 24.9041 39.6233 24.0927 39.9162 23.304C40.6662 23.1523 40.8066 23.1172 41.547 23.2889C41.6738 23.4505 41.8673 23.7784 41.9838 23.963C41.9906 24.3081 42.0178 24.7568 41.9817 25.0923C41.4301 30.2188 35.5596 33.4935 30.9004 33.1544C29.5865 36.5415 26.4282 39.2742 22.8187 39.821C19.6365 40.3031 17.4202 39.8299 14.7172 38.1732C13.2854 36.8548 11.4767 35.4318 10.9793 33.3472C7.67623 33.3563 4.79622 32.3145 2.38028 30.0377C0.939315 28.6797 0.0579187 26.9821 0.00210129 24.9778C-0.00758877 24.6309 0.0060828 24.1342 0.267913 23.8702C0.510895 23.6252 0.901616 23.3576 1.26174 23.3633C2.48554 23.3826 2.3532 25.3898 2.67111 26.153C2.99414 26.9284 3.60833 27.7194 4.1967 28.3107C6.02719 30.1505 8.58676 30.9397 11.128 30.9312C13.4204 30.9235 16.3161 30.2236 17.9833 28.522C18.6288 27.8633 19.3425 27.0032 19.6288 26.1075C19.9513 25.0993 19.7846 19.0398 19.7737 17.5316C19.631 17.4696 19.4905 17.4026 19.3526 17.3303C18.6454 16.9545 18.1346 16.6174 17.5258 16.0972C16.9874 15.8639 16.3318 15.0585 15.8933 14.6282C14.2032 13.0599 12.0524 10.248 11.3127 8.1225C10.8386 6.49357 10.8461 4.40115 11.6703 2.87893C14.0399 -1.49779 19.3731 -0.583747 20.7373 4.04564L20.8637 4.09469C20.9781 3.99805 21.1291 3.51534 21.1924 3.34416C21.7849 1.74166 23.2446 0.354449 24.9315 0.012953ZM13.4616 33.0948C13.8368 33.5912 14.315 34.3337 14.682 34.762C16.0034 36.2739 17.8189 37.2607 19.8005 37.544C20.1162 37.5873 20.3669 37.6191 20.686 37.6177C22.9568 37.6316 25.1368 36.721 26.7293 35.0931C27.2898 34.529 27.7716 33.7724 28.1126 33.0531C24.749 32.2134 23.3422 31.5429 20.9707 28.9217C20.8255 29.26 20.5532 29.4926 20.3133 29.7641C18.7658 31.515 15.8163 33.0715 13.4616 33.0948Z" fill="#85A3C9" />
</svg>